<svg width="158" height="37" viewBox="0 0 158 37" fill="none" xmlns="http://www.w3.org/2000/svg">
<g id="ItsMsalati-words">
<g id="Group">
<g id="Group_2">
<g id="Group_3">
<path id="Vector" d="M33.3442 30.7072H33.6086L34.3209 34.9534C34.3766 35.4375 34.4684 35.9133 34.5296 36.3975H34.5491C34.7049 35.9133 34.8496 35.4375 34.9887 34.9534L35.7929 32.2877H36.1128L36.9337 34.9534C37.0617 35.4375 37.2064 35.9217 37.3539 36.3975H37.39C37.454 35.9217 37.5375 35.4375 37.5987 34.9534L38.2832 30.7072H38.5392L37.5431 36.7425H37.1591L36.2353 33.7207C36.1351 33.3729 36.0628 33.0362 35.9626 32.6801H35.9348C35.8346 33.0362 35.7511 33.3729 35.6426 33.7207L34.7466 36.7425H34.3627L33.3442 30.7072Z" fill="white"/>
<path id="Vector_2" d="M41.7142 30.7156H45.2202V30.9716H42.0064V33.4007H44.7082V33.6567H42.0064V36.4865H45.312V36.7425H41.7142V30.7156Z" fill="white"/>
<path id="Vector_3" d="M48.907 30.7156H50.3678C51.6088 30.7156 52.3044 31.1914 52.3044 32.1764C52.3044 32.8164 51.9483 33.3089 51.236 33.4925V33.5287C52.1319 33.6567 52.6884 34.1492 52.6884 34.9895C52.6884 36.1387 51.8843 36.7425 50.4791 36.7425H48.9098V30.7156H48.907ZM50.1842 33.4007C51.5003 33.4007 52.0095 32.9806 52.0095 32.1764C52.0095 31.3194 51.4447 30.9716 50.2398 30.9716H49.1992V33.4007H50.1842ZM50.3678 36.4865C51.6645 36.4865 52.3935 36.0302 52.3935 35.0062C52.3935 34.0936 51.6617 33.6539 50.3678 33.6539H49.1992V36.4838H50.3678V36.4865Z" fill="white"/>
<path id="Vector_4" d="M63.3289 30.7156H64.6812C66.5427 30.7156 67.383 31.9204 67.383 33.7096C67.383 35.4987 66.5427 36.7398 64.6812 36.7398H63.3289V30.7156ZM64.645 36.4865C66.3618 36.4865 67.0741 35.2984 67.0741 33.7096C67.0741 32.1208 66.3618 30.9716 64.645 30.9716H63.621V36.4865H64.645Z" fill="white"/>
<path id="Vector_5" d="M70.9222 30.7156H74.4282V30.9716H71.2144V33.4007H73.9162V33.6567H71.2144V36.4865H74.5201V36.7425H70.9222V30.7156V30.7156Z" fill="white"/>
<path id="Vector_6" d="M77.6144 30.7156H77.926L79.0947 34.3301C79.3312 35.0786 79.4954 35.6267 79.7514 36.3669H79.7875C80.0435 35.6267 80.2077 35.0786 80.4442 34.3301L81.6129 30.7156H81.905L79.9155 36.7425H79.6234L77.6144 30.7156Z" fill="white"/>
<path id="Vector_7" d="M85.5277 30.7156H89.0337V30.9716H85.8199V33.4007H88.5217V33.6567H85.8199V36.4865H89.1255V36.7425H85.5277V30.7156V30.7156Z" fill="white"/>
<path id="Vector_8" d="M93.0488 30.7156H93.3215V36.4865H96.5353V36.7425H93.0488V30.7156Z" fill="white"/>
<path id="Vector_9" d="M99.4376 33.7096C99.4376 31.8091 100.37 30.6043 101.666 30.6043C102.963 30.6043 103.895 31.8091 103.895 33.7096C103.895 35.61 102.963 36.851 101.666 36.851C100.37 36.851 99.4376 35.61 99.4376 33.7096ZM103.584 33.7096C103.584 31.9733 102.807 30.8798 101.666 30.8798C100.526 30.8798 99.7493 31.9761 99.7493 33.7096C99.7493 35.4431 100.526 36.5756 101.666 36.5756C102.807 36.5784 103.584 35.4459 103.584 33.7096Z" fill="white"/>
<path id="Vector_10" d="M107.362 30.7156H108.932C110.284 30.7156 111.049 31.1552 111.049 32.3601C111.049 33.5092 110.281 34.0769 108.932 34.0769H107.655V36.7425H107.362V30.7156V30.7156ZM108.823 33.8209C110.12 33.8209 110.74 33.4007 110.74 32.3601C110.74 31.2999 110.12 30.9716 108.823 30.9716H107.655V33.8209H108.823Z" fill="white"/>
<path id="Vector_11" d="M114.736 30.7156H118.242V30.9716H115.028V33.4007H117.73V33.6567H115.028V36.4865H118.334V36.7425H114.736V30.7156Z" fill="white"/>
<path id="Vector_12" d="M121.965 30.7156H123.626C124.814 30.7156 125.563 31.1552 125.563 32.2682C125.563 33.3284 124.814 33.8932 123.626 33.8932H122.257V36.7425H121.965V30.7156ZM123.517 33.6372C124.63 33.6372 125.251 33.1976 125.251 32.2682C125.251 31.3194 124.63 30.9716 123.517 30.9716H122.257V33.6372H123.517ZM123.882 33.7847L125.654 36.7425H125.307L123.554 33.8014L123.882 33.7847Z" fill="white"/>
</g>
</g>
<g id="Group_4">
<g id="Group_5">
<path id="Vector_13" d="M5.73066 9.58789H0.0682373V7.14483H8.81648V20.2533H5.73066V9.58789ZM4.87921 2.6928C4.87921 1.46293 5.80301 0.611481 7.07184 0.611481C8.34067 0.611481 9.26447 1.46293 9.26447 2.6928C9.26447 3.93937 8.34067 4.75466 7.07184 4.75466C5.80301 4.75466 4.87921 3.93937 4.87921 2.6928Z" fill="white"/>
<path id="Vector_14" d="M19.173 14.9804V9.58789H15.667V7.28674L19.3037 7.14206L19.7044 3.03784H22.2616V7.14206H28.2217V9.5851H22.2616V14.9665C22.2616 17.1313 23.074 18.108 25.2889 18.108C26.3825 18.108 27.284 17.8881 28.141 17.5793L28.7393 19.8248C27.565 20.2115 26.2433 20.5705 24.546 20.5705C20.5364 20.5705 19.173 18.3194 19.173 14.9804Z" fill="white"/>
<path id="Vector_15" d="M33.1023 18.5421L34.449 16.5748C36.0128 17.6127 37.802 18.2387 39.9334 18.2387C41.7504 18.2387 42.6018 17.5459 42.6018 16.6778C42.6018 15.818 42.0258 15.3394 38.9734 14.7077C35.4758 13.9759 33.9231 12.7377 33.9231 10.7426C33.9231 8.46375 35.9989 6.82486 39.6663 6.82486C41.8366 6.82486 43.8206 7.67631 45.1506 8.55836L43.7315 10.4533C42.4627 9.6352 40.949 9.13992 39.3908 9.13992C37.6907 9.13992 36.9895 9.79659 36.9895 10.598C36.9895 11.5218 37.9522 11.8473 40.4064 12.3788C44.5941 13.3026 45.6849 14.4183 45.6849 16.4997C45.6849 18.7535 43.5117 20.5761 39.5271 20.5761C37.0841 20.5705 34.7273 19.6467 33.1023 18.5421Z" fill="white"/>
<path id="Vector_16" d="M50.5293 2.80133H53.9657L56.0386 9.60738L56.7565 12.2202H56.8623L57.5607 9.60738L59.6504 2.80133H63.0868V20.2505H60.3432V13.2107C60.3432 11.3743 60.6493 7.74866 60.794 6.05967H60.7133L59.5502 10.111L57.6303 15.626H55.8717L53.9657 10.111L52.8332 6.05967H52.7608C52.9417 7.75144 53.2116 11.3743 53.2116 13.2107V20.2505H50.5237V2.80133H50.5293Z" fill="white"/>
<path id="Vector_17" d="M66.7346 18.5421L68.0814 16.5748C69.6451 17.6127 71.4343 18.2387 73.5657 18.2387C75.3827 18.2387 76.2341 17.5459 76.2341 16.6778C76.2341 15.818 75.6582 15.3394 72.6057 14.7077C69.1081 13.9759 67.5555 12.7377 67.5555 10.7426C67.5555 8.46375 69.6312 6.82486 73.2986 6.82486C75.469 6.82486 77.4529 7.67631 78.7829 8.55836L77.3639 10.4533C76.095 9.6352 74.5813 9.13992 73.0231 9.13992C71.323 9.13992 70.6218 9.79659 70.6218 10.598C70.6218 11.5218 71.5846 11.8473 74.0387 12.3788C78.2264 13.3026 79.3172 14.4183 79.3172 16.4997C79.3172 18.7535 77.144 20.5761 73.1595 20.5761C70.7136 20.5705 68.3568 19.6467 66.7346 18.5421Z" fill="white"/>
<path id="Vector_18" d="M83.2461 16.7306C83.2461 13.7923 85.8311 12.3287 92.306 11.8724C92.1975 10.406 91.3237 9.3013 89.1868 9.3013C87.712 9.3013 86.2512 9.94406 84.9045 10.6926L83.7609 8.6502C85.3497 7.69858 87.5006 6.82208 89.7572 6.82208C93.3939 6.82208 95.3946 8.84219 95.3946 12.4929V20.2505H92.8569L92.6204 18.6255H92.5314C91.1568 19.6885 89.3955 20.5705 87.6397 20.5705C85.0798 20.5705 83.2461 19.004 83.2461 16.7306ZM92.3032 16.5581V13.8034C87.5952 14.1123 86.2373 15.0806 86.2373 16.4941C86.2373 17.6489 87.2585 18.1469 88.5579 18.1469C89.8768 18.1442 91.0928 17.5292 92.3032 16.5581Z" fill="white"/>
<path id="Vector_19" d="M103.664 15.4785V3.85038H99.2902V1.40732H106.753V15.6399C106.753 17.3901 107.785 18.0551 109.11 18.0551C109.789 18.0551 110.509 17.8965 111.352 17.5459L112.07 19.8276C110.782 20.3062 109.889 20.5733 108.356 20.5733C105.292 20.5705 103.664 18.6951 103.664 15.4785Z" fill="white"/>
<path id="Vector_20" d="M115.807 16.7306C115.807 13.7923 118.392 12.3287 124.867 11.8724C124.758 10.406 123.885 9.3013 121.748 9.3013C120.273 9.3013 118.812 9.94406 117.466 10.6926L116.322 8.6502C117.911 7.69858 120.062 6.82208 122.318 6.82208C125.955 6.82208 127.956 8.84219 127.956 12.4929V20.2505H125.418L125.181 18.6255H125.092C123.718 19.6885 121.956 20.5705 120.201 20.5705C117.644 20.5705 115.807 19.004 115.807 16.7306ZM124.867 16.5581V13.8034C120.159 14.1123 118.801 15.0806 118.801 16.4941C118.801 17.6489 119.822 18.1469 121.122 18.1469C122.441 18.1442 123.657 17.5292 124.867 16.5581Z" fill="white"/>
<path id="Vector_21" d="M135.277 14.9804V9.58789H131.771V7.28674L135.407 7.14206L135.808 3.03784H138.365V7.14206H144.325V9.5851H138.365V14.9665C138.365 17.1313 139.178 18.108 141.393 18.108C142.486 18.108 143.388 17.8881 144.245 17.5793L144.843 19.8248C143.669 20.2115 142.347 20.5705 140.65 20.5705C136.64 20.5705 135.277 18.3194 135.277 14.9804Z" fill="white"/>
<path id="Vector_22" d="M154.398 9.58789H148.735V7.14483H157.484V20.2533H154.398V9.58789V9.58789ZM153.546 2.6928C153.546 1.46293 154.47 0.611481 155.739 0.611481C157.008 0.611481 157.932 1.46293 157.932 2.6928C157.932 3.93937 157.008 4.75466 155.739 4.75466C154.47 4.75466 153.546 3.93937 153.546 2.6928Z" fill="white"/>
</g>
</g>
</g>
<g id="Group_6">
<g id="Group_7">
<g id="Group_8">
<path id="Vector_23" d="M33.3442 30.7072H33.6086L34.3209 34.9534C34.3766 35.4375 34.4684 35.9133 34.5296 36.3975H34.5491C34.7049 35.9133 34.8496 35.4375 34.9887 34.9534L35.7929 32.2877H36.1128L36.9337 34.9534C37.0617 35.4375 37.2064 35.9217 37.3539 36.3975H37.39C37.454 35.9217 37.5375 35.4375 37.5987 34.9534L38.2832 30.7072H38.5392L37.5431 36.7425H37.1591L36.2353 33.7207C36.1351 33.3729 36.0628 33.0362 35.9626 32.6801H35.9348C35.8346 33.0362 35.7511 33.3729 35.6426 33.7207L34.7466 36.7425H34.3627L33.3442 30.7072Z" fill="white"/>
<path id="Vector_24" d="M41.7142 30.7156H45.2202V30.9716H42.0064V33.4007H44.7082V33.6567H42.0064V36.4865H45.312V36.7425H41.7142V30.7156Z" fill="white"/>
<path id="Vector_25" d="M48.907 30.7156H50.3678C51.6088 30.7156 52.3044 31.1914 52.3044 32.1764C52.3044 32.8164 51.9483 33.3089 51.236 33.4925V33.5287C52.1319 33.6567 52.6884 34.1492 52.6884 34.9895C52.6884 36.1387 51.8843 36.7425 50.4791 36.7425H48.9098V30.7156H48.907ZM50.1842 33.4007C51.5003 33.4007 52.0095 32.9806 52.0095 32.1764C52.0095 31.3194 51.4447 30.9716 50.2398 30.9716H49.1992V33.4007H50.1842ZM50.3678 36.4865C51.6645 36.4865 52.3935 36.0302 52.3935 35.0062C52.3935 34.0936 51.6617 33.6539 50.3678 33.6539H49.1992V36.4838H50.3678V36.4865Z" fill="white"/>
<path id="Vector_26" d="M63.3289 30.7156H64.6812C66.5427 30.7156 67.383 31.9204 67.383 33.7096C67.383 35.4987 66.5427 36.7398 64.6812 36.7398H63.3289V30.7156ZM64.645 36.4865C66.3618 36.4865 67.0741 35.2984 67.0741 33.7096C67.0741 32.1208 66.3618 30.9716 64.645 30.9716H63.621V36.4865H64.645Z" fill="white"/>
<path id="Vector_27" d="M70.9222 30.7156H74.4282V30.9716H71.2144V33.4007H73.9162V33.6567H71.2144V36.4865H74.5201V36.7425H70.9222V30.7156V30.7156Z" fill="white"/>
<path id="Vector_28" d="M77.6144 30.7156H77.926L79.0947 34.3301C79.3312 35.0786 79.4954 35.6267 79.7514 36.3669H79.7875C80.0435 35.6267 80.2077 35.0786 80.4442 34.3301L81.6129 30.7156H81.905L79.9155 36.7425H79.6234L77.6144 30.7156Z" fill="white"/>
<path id="Vector_29" d="M85.5277 30.7156H89.0337V30.9716H85.8199V33.4007H88.5217V33.6567H85.8199V36.4865H89.1255V36.7425H85.5277V30.7156V30.7156Z" fill="white"/>
<path id="Vector_30" d="M93.0488 30.7156H93.3215V36.4865H96.5353V36.7425H93.0488V30.7156Z" fill="white"/>
<path id="Vector_31" d="M99.4376 33.7096C99.4376 31.8091 100.37 30.6043 101.666 30.6043C102.963 30.6043 103.895 31.8091 103.895 33.7096C103.895 35.61 102.963 36.851 101.666 36.851C100.37 36.851 99.4376 35.61 99.4376 33.7096ZM103.584 33.7096C103.584 31.9733 102.807 30.8798 101.666 30.8798C100.526 30.8798 99.7493 31.9761 99.7493 33.7096C99.7493 35.4431 100.526 36.5756 101.666 36.5756C102.807 36.5784 103.584 35.4459 103.584 33.7096Z" fill="white"/>
<path id="Vector_32" d="M107.362 30.7156H108.932C110.284 30.7156 111.049 31.1552 111.049 32.3601C111.049 33.5092 110.281 34.0769 108.932 34.0769H107.655V36.7425H107.362V30.7156V30.7156ZM108.823 33.8209C110.12 33.8209 110.74 33.4007 110.74 32.3601C110.74 31.2999 110.12 30.9716 108.823 30.9716H107.655V33.8209H108.823Z" fill="white"/>
<path id="Vector_33" d="M114.736 30.7156H118.242V30.9716H115.028V33.4007H117.73V33.6567H115.028V36.4865H118.334V36.7425H114.736V30.7156Z" fill="white"/>
<path id="Vector_34" d="M121.965 30.7156H123.626C124.814 30.7156 125.563 31.1552 125.563 32.2682C125.563 33.3284 124.814 33.8932 123.626 33.8932H122.257V36.7425H121.965V30.7156ZM123.517 33.6372C124.63 33.6372 125.251 33.1976 125.251 32.2682C125.251 31.3194 124.63 30.9716 123.517 30.9716H122.257V33.6372H123.517ZM123.882 33.7847L125.654 36.7425H125.307L123.554 33.8014L123.882 33.7847Z" fill="white"/>
</g>
</g>
<g id="Group_9">
<g id="Group_10">
<path id="Vector_35" d="M5.73066 9.58789H0.0682373V7.14483H8.81648V20.2533H5.73066V9.58789ZM4.87921 2.6928C4.87921 1.46293 5.80301 0.611481 7.07184 0.611481C8.34067 0.611481 9.26447 1.46293 9.26447 2.6928C9.26447 3.93937 8.34067 4.75466 7.07184 4.75466C5.80301 4.75466 4.87921 3.93937 4.87921 2.6928Z" fill="white"/>
<path id="Vector_36" d="M19.173 14.9804V9.58789H15.667V7.28674L19.3037 7.14206L19.7044 3.03784H22.2616V7.14206H28.2217V9.5851H22.2616V14.9665C22.2616 17.1313 23.074 18.108 25.2889 18.108C26.3825 18.108 27.284 17.8881 28.141 17.5793L28.7393 19.8248C27.565 20.2115 26.2433 20.5705 24.546 20.5705C20.5364 20.5705 19.173 18.3194 19.173 14.9804Z" fill="white"/>
<path id="Vector_37" d="M33.1023 18.5421L34.449 16.5748C36.0128 17.6127 37.802 18.2387 39.9334 18.2387C41.7504 18.2387 42.6018 17.5459 42.6018 16.6778C42.6018 15.818 42.0258 15.3394 38.9734 14.7077C35.4758 13.9759 33.9231 12.7377 33.9231 10.7426C33.9231 8.46375 35.9989 6.82486 39.6663 6.82486C41.8366 6.82486 43.8206 7.67631 45.1506 8.55836L43.7315 10.4533C42.4627 9.6352 40.949 9.13992 39.3908 9.13992C37.6907 9.13992 36.9895 9.79659 36.9895 10.598C36.9895 11.5218 37.9522 11.8473 40.4064 12.3788C44.5941 13.3026 45.6849 14.4183 45.6849 16.4997C45.6849 18.7535 43.5117 20.5761 39.5271 20.5761C37.0841 20.5705 34.7273 19.6467 33.1023 18.5421Z" fill="white"/>
<path id="Vector_38" d="M50.5293 2.80133H53.9657L56.0386 9.60738L56.7565 12.2202H56.8623L57.5607 9.60738L59.6504 2.80133H63.0868V20.2505H60.3432V13.2107C60.3432 11.3743 60.6493 7.74866 60.794 6.05967H60.7133L59.5502 10.111L57.6303 15.626H55.8717L53.9657 10.111L52.8332 6.05967H52.7608C52.9417 7.75144 53.2116 11.3743 53.2116 13.2107V20.2505H50.5237V2.80133H50.5293Z" fill="white"/>
<path id="Vector_39" d="M66.7346 18.5421L68.0814 16.5748C69.6451 17.6127 71.4343 18.2387 73.5657 18.2387C75.3827 18.2387 76.2341 17.5459 76.2341 16.6778C76.2341 15.818 75.6582 15.3394 72.6057 14.7077C69.1081 13.9759 67.5555 12.7377 67.5555 10.7426C67.5555 8.46375 69.6312 6.82486 73.2986 6.82486C75.469 6.82486 77.4529 7.67631 78.7829 8.55836L77.3639 10.4533C76.095 9.6352 74.5813 9.13992 73.0231 9.13992C71.323 9.13992 70.6218 9.79659 70.6218 10.598C70.6218 11.5218 71.5846 11.8473 74.0387 12.3788C78.2264 13.3026 79.3172 14.4183 79.3172 16.4997C79.3172 18.7535 77.144 20.5761 73.1595 20.5761C70.7136 20.5705 68.3568 19.6467 66.7346 18.5421Z" fill="white"/>
<path id="Vector_40" d="M83.2461 16.7306C83.2461 13.7923 85.8311 12.3287 92.306 11.8724C92.1975 10.406 91.3237 9.3013 89.1868 9.3013C87.712 9.3013 86.2512 9.94406 84.9045 10.6926L83.7609 8.6502C85.3497 7.69858 87.5006 6.82208 89.7572 6.82208C93.3939 6.82208 95.3946 8.84219 95.3946 12.4929V20.2505H92.8569L92.6204 18.6255H92.5314C91.1568 19.6885 89.3955 20.5705 87.6397 20.5705C85.0798 20.5705 83.2461 19.004 83.2461 16.7306ZM92.3032 16.5581V13.8034C87.5952 14.1123 86.2373 15.0806 86.2373 16.4941C86.2373 17.6489 87.2585 18.1469 88.5579 18.1469C89.8768 18.1442 91.0928 17.5292 92.3032 16.5581Z" fill="white"/>
<path id="Vector_41" d="M103.664 15.4785V3.85038H99.2902V1.40732H106.753V15.6399C106.753 17.3901 107.785 18.0551 109.11 18.0551C109.789 18.0551 110.509 17.8965 111.352 17.5459L112.07 19.8276C110.782 20.3062 109.889 20.5733 108.356 20.5733C105.292 20.5705 103.664 18.6951 103.664 15.4785Z" fill="white"/>
<path id="Vector_42" d="M115.807 16.7306C115.807 13.7923 118.392 12.3287 124.867 11.8724C124.758 10.406 123.885 9.3013 121.748 9.3013C120.273 9.3013 118.812 9.94406 117.466 10.6926L116.322 8.6502C117.911 7.69858 120.062 6.82208 122.318 6.82208C125.955 6.82208 127.956 8.84219 127.956 12.4929V20.2505H125.418L125.181 18.6255H125.092C123.718 19.6885 121.956 20.5705 120.201 20.5705C117.644 20.5705 115.807 19.004 115.807 16.7306ZM124.867 16.5581V13.8034C120.159 14.1123 118.801 15.0806 118.801 16.4941C118.801 17.6489 119.822 18.1469 121.122 18.1469C122.441 18.1442 123.657 17.5292 124.867 16.5581Z" fill="white"/>
<path id="Vector_43" d="M135.277 14.9804V9.58789H131.771V7.28674L135.407 7.14206L135.808 3.03784H138.365V7.14206H144.325V9.5851H138.365V14.9665C138.365 17.1313 139.178 18.108 141.393 18.108C142.486 18.108 143.388 17.8881 144.245 17.5793L144.843 19.8248C143.669 20.2115 142.347 20.5705 140.65 20.5705C136.64 20.5705 135.277 18.3194 135.277 14.9804Z" fill="white"/>
<path id="Vector_44" d="M154.398 9.58789H148.735V7.14483H157.484V20.2533H154.398V9.58789V9.58789ZM153.546 2.6928C153.546 1.46293 154.47 0.611481 155.739 0.611481C157.008 0.611481 157.932 1.46293 157.932 2.6928C157.932 3.93937 157.008 4.75466 155.739 4.75466C154.47 4.75466 153.546 3.93937 153.546 2.6928Z" fill="white"/>
</g>
</g>
</g>
</g>
</svg>
