<?xml version="1.0" encoding="utf-8"?>
<!-- Generator: Adobe Illustrator 25.0.0, SVG Export Plug-In . SVG Version: 6.00 Build 0)  -->
<svg version="1.1" id="Layer_1" xmlns="http://www.w3.org/2000/svg" xmlns:xlink="http://www.w3.org/1999/xlink" x="0px" y="0px"
	 viewBox="0 0 1920 1080" style="enable-background:new 0 0 1920 1080;" xml:space="preserve">
<style type="text/css">
	.st0{fill:#FFFFFF;}
	.st1{display:none;}
	.st2{display:inline;}
</style>
<rect class="st0" width="1920" height="1080"/>
<g>
	<g>
		<g class="st1">
			<g class="st2">
				<path d="M698.6,674.57h-20.35v-8.78h31.44v47.11H698.6V674.57z M695.54,649.79c0-4.42,3.32-7.48,7.88-7.48
					c4.56,0,7.88,3.06,7.88,7.48c0,4.48-3.32,7.41-7.88,7.41C698.86,657.2,695.54,654.27,695.54,649.79z"/>
				<path d="M734.62,706.75l4.84-7.07c5.62,3.73,12.05,5.98,19.71,5.98c6.53,0,9.59-2.49,9.59-5.61c0-3.09-2.07-4.81-13.04-7.08
					c-12.57-2.63-18.15-7.08-18.15-14.25c0-8.19,7.46-14.08,20.64-14.08c7.8,0,14.93,3.06,19.71,6.23l-5.1,6.81
					c-4.56-2.94-10-4.72-15.6-4.72c-6.1,0-8.63,2.36-8.63,5.24c0,3.32,3.46,4.49,12.28,6.4c15.05,3.32,18.97,7.33,18.97,14.81
					c0,8.1-7.81,14.65-22.13,14.65C748.93,714.04,740.46,710.72,734.62,706.75z"/>
				<path d="M805.42,693.95v-19.38h-12.6v-8.27l13.07-0.52l1.44-14.75h9.19v14.75h21.42v8.78h-21.42v19.34
					c0,7.78,2.92,11.29,10.88,11.29c3.93,0,7.17-0.79,10.25-1.9l2.15,8.07c-4.22,1.39-8.97,2.68-15.07,2.68
					C810.32,714.04,805.42,705.95,805.42,693.95z"/>
				<path d="M855.76,650.18h12.35l7.45,24.46l2.58,9.39h0.38l2.52-9.39l7.51-24.46h12.35v62.71h-9.86v-25.3
					c0-6.6,1.1-19.63,1.62-25.7h-0.29l-4.18,14.56l-6.9,19.82h-6.32l-6.85-19.82l-4.07-14.56h-0.26c0.65,6.08,1.62,19.1,1.62,25.7
					v25.3h-9.66V650.18z"/>
				<path d="M914,706.75l4.84-7.07c5.62,3.73,12.05,5.98,19.71,5.98c6.53,0,9.59-2.49,9.59-5.61c0-3.09-2.07-4.81-13.04-7.08
					c-12.57-2.63-18.15-7.08-18.15-14.25c0-8.19,7.46-14.08,20.64-14.08c7.8,0,14.93,3.06,19.71,6.23l-5.1,6.81
					c-4.56-2.94-10-4.72-15.6-4.72c-6.1,0-8.63,2.36-8.63,5.24c0,3.32,3.47,4.49,12.28,6.4c15.05,3.32,18.97,7.33,18.97,14.81
					c0,8.1-7.81,14.65-22.12,14.65C928.3,714.04,919.83,710.72,914,706.75z"/>
				<path d="M973.34,700.24c0-10.56,9.29-15.82,32.56-17.46c-0.39-5.27-3.53-9.24-11.21-9.24c-5.3,0-10.55,2.31-15.39,5l-4.11-7.34
					c5.71-3.42,13.44-6.57,21.55-6.57c13.07,0,20.26,7.26,20.26,20.38v27.88h-9.12l-0.85-5.84h-0.32
					c-4.94,3.82-11.27,6.99-17.58,6.99C979.94,714.04,973.34,708.41,973.34,700.24z M1005.9,699.62v-9.9
					c-16.92,1.11-21.8,4.59-21.8,9.67c0,4.15,3.67,5.94,8.34,5.94C997.17,705.32,1001.54,703.11,1005.9,699.62z"/>
				<path d="M1046.72,695.74v-41.79h-15.72v-8.78h26.82v51.15c0,6.29,3.72,8.68,8.47,8.68c2.44,0,5.03-0.57,8.06-1.83l2.58,8.2
					c-4.63,1.72-7.84,2.68-13.35,2.68C1052.57,714.04,1046.72,707.3,1046.72,695.74z"/>
				<path d="M1090.37,700.24c0-10.56,9.29-15.82,32.55-17.46c-0.39-5.27-3.53-9.24-11.21-9.24c-5.3,0-10.55,2.31-15.39,5l-4.11-7.34
					c5.71-3.42,13.43-6.57,21.55-6.57c13.07,0,20.26,7.26,20.26,20.38v27.88h-9.12l-0.85-5.84h-0.32
					c-4.94,3.82-11.27,6.99-17.58,6.99C1096.96,714.04,1090.37,708.41,1090.37,700.24z M1122.92,699.62v-9.9
					c-16.92,1.11-21.8,4.59-21.8,9.67c0,4.15,3.67,5.94,8.34,5.94C1114.2,705.32,1118.57,703.11,1122.92,699.62z"/>
				<path d="M1160.33,693.95v-19.38h-12.6v-8.27l13.07-0.52l1.44-14.75h9.19v14.75h21.42v8.78h-21.42v19.34
					c0,7.78,2.92,11.29,10.88,11.29c3.93,0,7.17-0.79,10.25-1.9l2.15,8.07c-4.22,1.39-8.98,2.68-15.07,2.68
					C1165.23,714.04,1160.33,705.95,1160.33,693.95z"/>
				<path d="M1229.05,674.57h-20.35v-8.78h31.44v47.11h-11.09V674.57z M1225.99,649.79c0-4.42,3.32-7.48,7.88-7.48
					c4.56,0,7.88,3.06,7.88,7.48c0,4.48-3.32,7.41-7.88,7.41C1229.31,657.2,1225.99,654.27,1225.99,649.79z"/>
			</g>
		</g>
		<g>
			<g>
				<path d="M795.92,750.47h0.95l2.56,15.26c0.2,1.74,0.53,3.45,0.75,5.19h0.07c0.56-1.74,1.08-3.45,1.58-5.19l2.89-9.58h1.15
					l2.95,9.58c0.46,1.74,0.98,3.48,1.51,5.19h0.13c0.23-1.71,0.53-3.45,0.75-5.19l2.46-15.26h0.92l-3.58,21.69h-1.38l-3.32-10.86
					c-0.36-1.25-0.62-2.46-0.98-3.74h-0.1c-0.36,1.28-0.66,2.49-1.05,3.74l-3.22,10.86h-1.38L795.92,750.47z"/>
				<path d="M826,750.5h12.6v0.92h-11.55v8.73h9.71v0.92h-9.71v10.17h11.88v0.92H826V750.5z"/>
				<path d="M851.85,750.5h5.25c4.46,0,6.96,1.71,6.96,5.25c0,2.3-1.28,4.07-3.84,4.73v0.13c3.22,0.46,5.22,2.23,5.22,5.25
					c0,4.13-2.89,6.3-7.94,6.3h-5.64V750.5z M856.44,760.15c4.73,0,6.56-1.51,6.56-4.4c0-3.08-2.03-4.33-6.36-4.33h-3.74v8.73
					H856.44z M857.1,771.24c4.66,0,7.28-1.64,7.28-5.32c0-3.28-2.63-4.86-7.28-4.86h-4.2v10.17H857.1z"/>
				<path d="M903.68,750.5h4.86c6.69,0,9.71,4.33,9.71,10.76c0,6.43-3.02,10.89-9.71,10.89h-4.86V750.5z M908.41,771.24
					c6.17,0,8.73-4.27,8.73-9.98c0-5.71-2.56-9.84-8.73-9.84h-3.68v19.82H908.41z"/>
				<path d="M930.97,750.5h12.6v0.92h-11.55v8.73h9.71v0.92h-9.71v10.17h11.88v0.92h-12.93V750.5z"/>
				<path d="M955.02,750.5h1.12l4.2,12.99c0.85,2.69,1.44,4.66,2.36,7.32h0.13c0.92-2.66,1.51-4.63,2.36-7.32l4.2-12.99h1.05
					l-7.15,21.66h-1.05L955.02,750.5z"/>
				<path d="M983.46,750.5h12.6v0.92h-11.55v8.73h9.71v0.92h-9.71v10.17h11.88v0.92h-12.93V750.5z"/>
				<path d="M1010.49,750.5h0.98v20.74h11.55v0.92h-12.53V750.5z"/>
				<path d="M1033.45,761.26c0-6.83,3.35-11.16,8.01-11.16c4.66,0,8.01,4.33,8.01,11.16s-3.35,11.29-8.01,11.29
					C1036.8,772.55,1033.45,768.09,1033.45,761.26z M1048.35,761.26c0-6.24-2.79-10.17-6.89-10.17c-4.1,0-6.89,3.94-6.89,10.17
					c0,6.23,2.79,10.3,6.89,10.3C1045.56,771.57,1048.35,767.5,1048.35,761.26z"/>
				<path d="M1061.93,750.5h5.64c4.86,0,7.61,1.58,7.61,5.91c0,4.13-2.76,6.17-7.61,6.17h-4.59v9.58h-1.05V750.5z M1067.18,761.66
					c4.66,0,6.89-1.51,6.89-5.25c0-3.81-2.23-4.99-6.89-4.99h-4.2v10.24H1067.18z"/>
				<path d="M1088.43,750.5h12.6v0.92h-11.55v8.73h9.71v0.92h-9.71v10.17h11.88v0.92h-12.93V750.5z"/>
				<path d="M1114.41,750.5h5.97c4.27,0,6.96,1.58,6.96,5.58c0,3.81-2.69,5.84-6.96,5.84h-4.92v10.24h-1.05V750.5z M1119.99,761
					c4,0,6.23-1.58,6.23-4.92c0-3.41-2.23-4.66-6.23-4.66h-4.53V761H1119.99z M1121.3,761.53l6.37,10.63h-1.25l-6.3-10.57
					L1121.3,761.53z"/>
			</g>
		</g>
		<g>
			<g>
				<path d="M696.68,674.57h-20.35v-8.78h31.44v47.11h-11.09V674.57z M693.62,649.79c0-4.42,3.32-7.48,7.88-7.48
					s7.88,3.06,7.88,7.48c0,4.48-3.32,7.41-7.88,7.41S693.62,654.27,693.62,649.79z"/>
				<path d="M744.99,693.95v-19.38h-12.6v-8.27l13.07-0.52l1.44-14.75h9.19v14.75h21.42v8.78h-21.42v19.34
					c0,7.78,2.92,11.29,10.88,11.29c3.93,0,7.17-0.79,10.25-1.9l2.15,8.07c-4.22,1.39-8.97,2.68-15.07,2.68
					C749.89,714.04,744.99,705.95,744.99,693.95z"/>
				<path d="M795.05,706.75l4.84-7.07c5.62,3.73,12.05,5.98,19.71,5.98c6.53,0,9.59-2.49,9.59-5.61c0-3.09-2.07-4.81-13.04-7.08
					c-12.57-2.63-18.15-7.08-18.15-14.25c0-8.19,7.46-14.08,20.64-14.08c7.8,0,14.93,3.06,19.71,6.23l-5.1,6.81
					c-4.56-2.94-10-4.72-15.6-4.72c-6.11,0-8.63,2.36-8.63,5.24c0,3.32,3.46,4.49,12.28,6.4c15.05,3.32,18.97,7.33,18.97,14.81
					c0,8.1-7.81,14.65-22.13,14.65C809.36,714.04,800.89,710.72,795.05,706.75z"/>
				<path d="M857.68,650.18h12.35l7.45,24.46l2.58,9.39h0.38l2.51-9.39l7.51-24.46h12.35v62.71h-9.86v-25.3
					c0-6.6,1.1-19.63,1.62-25.7h-0.29l-4.18,14.56l-6.9,19.82h-6.32l-6.85-19.82l-4.07-14.56h-0.26c0.65,6.08,1.62,19.1,1.62,25.7
					v25.3h-9.66V650.18z"/>
				<path d="M915.92,706.75l4.84-7.07c5.62,3.73,12.05,5.98,19.71,5.98c6.53,0,9.59-2.49,9.59-5.61c0-3.09-2.07-4.81-13.04-7.08
					c-12.57-2.63-18.15-7.08-18.15-14.25c0-8.19,7.46-14.08,20.64-14.08c7.8,0,14.93,3.06,19.71,6.23l-5.1,6.81
					c-4.56-2.94-10-4.72-15.6-4.72c-6.11,0-8.63,2.36-8.63,5.24c0,3.32,3.46,4.49,12.28,6.4c15.05,3.32,18.97,7.33,18.97,14.81
					c0,8.1-7.81,14.65-22.13,14.65C930.22,714.04,921.75,710.72,915.92,706.75z"/>
				<path d="M975.26,700.24c0-10.56,9.29-15.82,32.56-17.46c-0.39-5.27-3.53-9.24-11.21-9.24c-5.3,0-10.55,2.31-15.39,5l-4.11-7.34
					c5.71-3.42,13.44-6.57,21.55-6.57c13.07,0,20.26,7.26,20.26,20.38v27.88h-9.12l-0.85-5.84h-0.32
					c-4.94,3.82-11.27,6.99-17.58,6.99C981.85,714.04,975.26,708.41,975.26,700.24z M1007.81,699.62v-9.9
					c-16.92,1.11-21.8,4.59-21.8,9.67c0,4.15,3.67,5.94,8.34,5.94C999.09,705.32,1003.46,703.11,1007.81,699.62z"/>
				<path d="M1048.64,695.74v-41.79h-15.72v-8.78h26.82v51.15c0,6.29,3.71,8.68,8.47,8.68c2.44,0,5.03-0.57,8.06-1.83l2.58,8.2
					c-4.63,1.72-7.84,2.68-13.35,2.68C1054.49,714.04,1048.64,707.3,1048.64,695.74z"/>
				<path d="M1092.28,700.24c0-10.56,9.29-15.82,32.56-17.46c-0.39-5.27-3.53-9.24-11.21-9.24c-5.3,0-10.55,2.31-15.39,5l-4.11-7.34
					c5.71-3.42,13.44-6.57,21.55-6.57c13.07,0,20.26,7.26,20.26,20.38v27.88h-9.12l-0.85-5.84h-0.32
					c-4.94,3.82-11.27,6.99-17.58,6.99C1098.88,714.04,1092.28,708.41,1092.28,700.24z M1124.84,699.62v-9.9
					c-16.92,1.11-21.8,4.59-21.8,9.67c0,4.15,3.67,5.94,8.34,5.94C1116.12,705.32,1120.49,703.11,1124.84,699.62z"/>
				<path d="M1162.25,693.95v-19.38h-12.6v-8.27l13.07-0.52l1.44-14.75h9.19v14.75h21.42v8.78h-21.42v19.34
					c0,7.78,2.92,11.29,10.88,11.29c3.93,0,7.17-0.79,10.25-1.9l2.15,8.07c-4.22,1.39-8.97,2.68-15.07,2.68
					C1167.15,714.04,1162.25,705.95,1162.25,693.95z"/>
				<path d="M1230.97,674.57h-20.35v-8.78h31.44v47.11h-11.09V674.57z M1227.91,649.79c0-4.42,3.32-7.48,7.88-7.48
					s7.88,3.06,7.88,7.48c0,4.48-3.32,7.41-7.88,7.41S1227.91,654.27,1227.91,649.79z"/>
			</g>
		</g>
	</g>
	<g>
		<g class="st1">
			<g class="st2">
				<path d="M698.6,674.57h-20.35v-8.78h31.44v47.11H698.6V674.57z M695.54,649.79c0-4.42,3.32-7.48,7.88-7.48
					c4.56,0,7.88,3.06,7.88,7.48c0,4.48-3.32,7.41-7.88,7.41C698.86,657.2,695.54,654.27,695.54,649.79z"/>
				<path d="M734.62,706.75l4.84-7.07c5.62,3.73,12.05,5.98,19.71,5.98c6.53,0,9.59-2.49,9.59-5.61c0-3.09-2.07-4.81-13.04-7.08
					c-12.57-2.63-18.15-7.08-18.15-14.25c0-8.19,7.46-14.08,20.64-14.08c7.8,0,14.93,3.06,19.71,6.23l-5.1,6.81
					c-4.56-2.94-10-4.72-15.6-4.72c-6.1,0-8.63,2.36-8.63,5.24c0,3.32,3.46,4.49,12.28,6.4c15.05,3.32,18.97,7.33,18.97,14.81
					c0,8.1-7.81,14.65-22.13,14.65C748.93,714.04,740.46,710.72,734.62,706.75z"/>
				<path d="M805.42,693.95v-19.38h-12.6v-8.27l13.07-0.52l1.44-14.75h9.19v14.75h21.42v8.78h-21.42v19.34
					c0,7.78,2.92,11.29,10.88,11.29c3.93,0,7.17-0.79,10.25-1.9l2.15,8.07c-4.22,1.39-8.97,2.68-15.07,2.68
					C810.32,714.04,805.42,705.95,805.42,693.95z"/>
				<path d="M855.76,650.18h12.35l7.45,24.46l2.58,9.39h0.38l2.52-9.39l7.51-24.46h12.35v62.71h-9.86v-25.3
					c0-6.6,1.1-19.63,1.62-25.7h-0.29l-4.18,14.56l-6.9,19.82h-6.32l-6.85-19.82l-4.07-14.56h-0.26c0.65,6.08,1.62,19.1,1.62,25.7
					v25.3h-9.66V650.18z"/>
				<path d="M914,706.75l4.84-7.07c5.62,3.73,12.05,5.98,19.71,5.98c6.53,0,9.59-2.49,9.59-5.61c0-3.09-2.07-4.81-13.04-7.08
					c-12.57-2.63-18.15-7.08-18.15-14.25c0-8.19,7.46-14.08,20.64-14.08c7.8,0,14.93,3.06,19.71,6.23l-5.1,6.81
					c-4.56-2.94-10-4.72-15.6-4.72c-6.1,0-8.63,2.36-8.63,5.24c0,3.32,3.47,4.49,12.28,6.4c15.05,3.32,18.97,7.33,18.97,14.81
					c0,8.1-7.81,14.65-22.12,14.65C928.3,714.04,919.83,710.72,914,706.75z"/>
				<path d="M973.34,700.24c0-10.56,9.29-15.82,32.56-17.46c-0.39-5.27-3.53-9.24-11.21-9.24c-5.3,0-10.55,2.31-15.39,5l-4.11-7.34
					c5.71-3.42,13.44-6.57,21.55-6.57c13.07,0,20.26,7.26,20.26,20.38v27.88h-9.12l-0.85-5.84h-0.32
					c-4.94,3.82-11.27,6.99-17.58,6.99C979.94,714.04,973.34,708.41,973.34,700.24z M1005.9,699.62v-9.9
					c-16.92,1.11-21.8,4.59-21.8,9.67c0,4.15,3.67,5.94,8.34,5.94C997.17,705.32,1001.54,703.11,1005.9,699.62z"/>
				<path d="M1046.72,695.74v-41.79h-15.72v-8.78h26.82v51.15c0,6.29,3.72,8.68,8.47,8.68c2.44,0,5.03-0.57,8.06-1.83l2.58,8.2
					c-4.63,1.72-7.84,2.68-13.35,2.68C1052.57,714.04,1046.72,707.3,1046.72,695.74z"/>
				<path d="M1090.37,700.24c0-10.56,9.29-15.82,32.55-17.46c-0.39-5.27-3.53-9.24-11.21-9.24c-5.3,0-10.55,2.31-15.39,5l-4.11-7.34
					c5.71-3.42,13.43-6.57,21.55-6.57c13.07,0,20.26,7.26,20.26,20.38v27.88h-9.12l-0.85-5.84h-0.32
					c-4.94,3.82-11.27,6.99-17.58,6.99C1096.96,714.04,1090.37,708.41,1090.37,700.24z M1122.92,699.62v-9.9
					c-16.92,1.11-21.8,4.59-21.8,9.67c0,4.15,3.67,5.94,8.34,5.94C1114.2,705.32,1118.57,703.11,1122.92,699.62z"/>
				<path d="M1160.33,693.95v-19.38h-12.6v-8.27l13.07-0.52l1.44-14.75h9.19v14.75h21.42v8.78h-21.42v19.34
					c0,7.78,2.92,11.29,10.88,11.29c3.93,0,7.17-0.79,10.25-1.9l2.15,8.07c-4.22,1.39-8.98,2.68-15.07,2.68
					C1165.23,714.04,1160.33,705.95,1160.33,693.95z"/>
				<path d="M1229.05,674.57h-20.35v-8.78h31.44v47.11h-11.09V674.57z M1225.99,649.79c0-4.42,3.32-7.48,7.88-7.48
					c4.56,0,7.88,3.06,7.88,7.48c0,4.48-3.32,7.41-7.88,7.41C1229.31,657.2,1225.99,654.27,1225.99,649.79z"/>
			</g>
		</g>
		<g>
			<g>
				<path d="M795.92,750.47h0.95l2.56,15.26c0.2,1.74,0.53,3.45,0.75,5.19h0.07c0.56-1.74,1.08-3.45,1.58-5.19l2.89-9.58h1.15
					l2.95,9.58c0.46,1.74,0.98,3.48,1.51,5.19h0.13c0.23-1.71,0.53-3.45,0.75-5.19l2.46-15.26h0.92l-3.58,21.69h-1.38l-3.32-10.86
					c-0.36-1.25-0.62-2.46-0.98-3.74h-0.1c-0.36,1.28-0.66,2.49-1.05,3.74l-3.22,10.86h-1.38L795.92,750.47z"/>
				<path d="M826,750.5h12.6v0.92h-11.55v8.73h9.71v0.92h-9.71v10.17h11.88v0.92H826V750.5z"/>
				<path d="M851.85,750.5h5.25c4.46,0,6.96,1.71,6.96,5.25c0,2.3-1.28,4.07-3.84,4.73v0.13c3.22,0.46,5.22,2.23,5.22,5.25
					c0,4.13-2.89,6.3-7.94,6.3h-5.64V750.5z M856.44,760.15c4.73,0,6.56-1.51,6.56-4.4c0-3.08-2.03-4.33-6.36-4.33h-3.74v8.73
					H856.44z M857.1,771.24c4.66,0,7.28-1.64,7.28-5.32c0-3.28-2.63-4.86-7.28-4.86h-4.2v10.17H857.1z"/>
				<path d="M903.68,750.5h4.86c6.69,0,9.71,4.33,9.71,10.76c0,6.43-3.02,10.89-9.71,10.89h-4.86V750.5z M908.41,771.24
					c6.17,0,8.73-4.27,8.73-9.98c0-5.71-2.56-9.84-8.73-9.84h-3.68v19.82H908.41z"/>
				<path d="M930.97,750.5h12.6v0.92h-11.55v8.73h9.71v0.92h-9.71v10.17h11.88v0.92h-12.93V750.5z"/>
				<path d="M955.02,750.5h1.12l4.2,12.99c0.85,2.69,1.44,4.66,2.36,7.32h0.13c0.92-2.66,1.51-4.63,2.36-7.32l4.2-12.99h1.05
					l-7.15,21.66h-1.05L955.02,750.5z"/>
				<path d="M983.46,750.5h12.6v0.92h-11.55v8.73h9.71v0.92h-9.71v10.17h11.88v0.92h-12.93V750.5z"/>
				<path d="M1010.49,750.5h0.98v20.74h11.55v0.92h-12.53V750.5z"/>
				<path d="M1033.45,761.26c0-6.83,3.35-11.16,8.01-11.16c4.66,0,8.01,4.33,8.01,11.16s-3.35,11.29-8.01,11.29
					C1036.8,772.55,1033.45,768.09,1033.45,761.26z M1048.35,761.26c0-6.24-2.79-10.17-6.89-10.17c-4.1,0-6.89,3.94-6.89,10.17
					c0,6.23,2.79,10.3,6.89,10.3C1045.56,771.57,1048.35,767.5,1048.35,761.26z"/>
				<path d="M1061.93,750.5h5.64c4.86,0,7.61,1.58,7.61,5.91c0,4.13-2.76,6.17-7.61,6.17h-4.59v9.58h-1.05V750.5z M1067.18,761.66
					c4.66,0,6.89-1.51,6.89-5.25c0-3.81-2.23-4.99-6.89-4.99h-4.2v10.24H1067.18z"/>
				<path d="M1088.43,750.5h12.6v0.92h-11.55v8.73h9.71v0.92h-9.71v10.17h11.88v0.92h-12.93V750.5z"/>
				<path d="M1114.41,750.5h5.97c4.27,0,6.96,1.58,6.96,5.58c0,3.81-2.69,5.84-6.96,5.84h-4.92v10.24h-1.05V750.5z M1119.99,761
					c4,0,6.23-1.58,6.23-4.92c0-3.41-2.23-4.66-6.23-4.66h-4.53V761H1119.99z M1121.3,761.53l6.37,10.63h-1.25l-6.3-10.57
					L1121.3,761.53z"/>
			</g>
		</g>
		<g>
			<g>
				<path d="M696.68,674.57h-20.35v-8.78h31.44v47.11h-11.09V674.57z M693.62,649.79c0-4.42,3.32-7.48,7.88-7.48
					s7.88,3.06,7.88,7.48c0,4.48-3.32,7.41-7.88,7.41S693.62,654.27,693.62,649.79z"/>
				<path d="M744.99,693.95v-19.38h-12.6v-8.27l13.07-0.52l1.44-14.75h9.19v14.75h21.42v8.78h-21.42v19.34
					c0,7.78,2.92,11.29,10.88,11.29c3.93,0,7.17-0.79,10.25-1.9l2.15,8.07c-4.22,1.39-8.97,2.68-15.07,2.68
					C749.89,714.04,744.99,705.95,744.99,693.95z"/>
				<path d="M795.05,706.75l4.84-7.07c5.62,3.73,12.05,5.98,19.71,5.98c6.53,0,9.59-2.49,9.59-5.61c0-3.09-2.07-4.81-13.04-7.08
					c-12.57-2.63-18.15-7.08-18.15-14.25c0-8.19,7.46-14.08,20.64-14.08c7.8,0,14.93,3.06,19.71,6.23l-5.1,6.81
					c-4.56-2.94-10-4.72-15.6-4.72c-6.11,0-8.63,2.36-8.63,5.24c0,3.32,3.46,4.49,12.28,6.4c15.05,3.32,18.97,7.33,18.97,14.81
					c0,8.1-7.81,14.65-22.13,14.65C809.36,714.04,800.89,710.72,795.05,706.75z"/>
				<path d="M857.68,650.18h12.35l7.45,24.46l2.58,9.39h0.38l2.51-9.39l7.51-24.46h12.35v62.71h-9.86v-25.3
					c0-6.6,1.1-19.63,1.62-25.7h-0.29l-4.18,14.56l-6.9,19.82h-6.32l-6.85-19.82l-4.07-14.56h-0.26c0.65,6.08,1.62,19.1,1.62,25.7
					v25.3h-9.66V650.18z"/>
				<path d="M915.92,706.75l4.84-7.07c5.62,3.73,12.05,5.98,19.71,5.98c6.53,0,9.59-2.49,9.59-5.61c0-3.09-2.07-4.81-13.04-7.08
					c-12.57-2.63-18.15-7.08-18.15-14.25c0-8.19,7.46-14.08,20.64-14.08c7.8,0,14.93,3.06,19.71,6.23l-5.1,6.81
					c-4.56-2.94-10-4.72-15.6-4.72c-6.11,0-8.63,2.36-8.63,5.24c0,3.32,3.46,4.49,12.28,6.4c15.05,3.32,18.97,7.33,18.97,14.81
					c0,8.1-7.81,14.65-22.13,14.65C930.22,714.04,921.75,710.72,915.92,706.75z"/>
				<path d="M975.26,700.24c0-10.56,9.29-15.82,32.56-17.46c-0.39-5.27-3.53-9.24-11.21-9.24c-5.3,0-10.55,2.31-15.39,5l-4.11-7.34
					c5.71-3.42,13.44-6.57,21.55-6.57c13.07,0,20.26,7.26,20.26,20.38v27.88h-9.12l-0.85-5.84h-0.32
					c-4.94,3.82-11.27,6.99-17.58,6.99C981.85,714.04,975.26,708.41,975.26,700.24z M1007.81,699.62v-9.9
					c-16.92,1.11-21.8,4.59-21.8,9.67c0,4.15,3.67,5.94,8.34,5.94C999.09,705.32,1003.46,703.11,1007.81,699.62z"/>
				<path d="M1048.64,695.74v-41.79h-15.72v-8.78h26.82v51.15c0,6.29,3.71,8.68,8.47,8.68c2.44,0,5.03-0.57,8.06-1.83l2.58,8.2
					c-4.63,1.72-7.84,2.68-13.35,2.68C1054.49,714.04,1048.64,707.3,1048.64,695.74z"/>
				<path d="M1092.28,700.24c0-10.56,9.29-15.82,32.56-17.46c-0.39-5.27-3.53-9.24-11.21-9.24c-5.3,0-10.55,2.31-15.39,5l-4.11-7.34
					c5.71-3.42,13.44-6.57,21.55-6.57c13.07,0,20.26,7.26,20.26,20.38v27.88h-9.12l-0.85-5.84h-0.32
					c-4.94,3.82-11.27,6.99-17.58,6.99C1098.88,714.04,1092.28,708.41,1092.28,700.24z M1124.84,699.62v-9.9
					c-16.92,1.11-21.8,4.59-21.8,9.67c0,4.15,3.67,5.94,8.34,5.94C1116.12,705.32,1120.49,703.11,1124.84,699.62z"/>
				<path d="M1162.25,693.95v-19.38h-12.6v-8.27l13.07-0.52l1.44-14.75h9.19v14.75h21.42v8.78h-21.42v19.34
					c0,7.78,2.92,11.29,10.88,11.29c3.93,0,7.17-0.79,10.25-1.9l2.15,8.07c-4.22,1.39-8.97,2.68-15.07,2.68
					C1167.15,714.04,1162.25,705.95,1162.25,693.95z"/>
				<path d="M1230.97,674.57h-20.35v-8.78h31.44v47.11h-11.09V674.57z M1227.91,649.79c0-4.42,3.32-7.48,7.88-7.48
					s7.88,3.06,7.88,7.48c0,4.48-3.32,7.41-7.88,7.41S1227.91,654.27,1227.91,649.79z"/>
			</g>
		</g>
	</g>
	<g>
		<g>
			<g>
				<g>
					<path d="M965.33,307.45c2.07,5.34,3.68,10.68,5.12,16.02c-0.1,5.34-0.03,10.68-0.05,16.02v32.05v64.1
						c0,2.8-2.27,5.07-5.07,5.07c-2.8,0-5.07-2.27-5.07-5.07v-64.1V339.5c-0.02-5.34,0.05-10.68-0.05-16.02
						C961.65,318.13,963.26,312.79,965.33,307.45z"/>
				</g>
				<g>
					<path d="M928.7,344.3c-0.1,3.49-0.04,6.99-0.06,10.48v62.95c0,2.07-1.24,3.83-3,4.62l-6.95-3.32h-0.02
						c-0.1-0.41-0.16-0.85-0.16-1.3v-62.95c-0.02-3.49,0.06-6.99-0.04-10.48c1.44-3.51,3.04-6.99,5.11-10.5
						C925.66,337.31,927.26,340.8,928.7,344.3z"/>
				</g>
				<g>
					<path d="M1012.15,354.79v62.95c0,0.45-0.06,0.89-0.16,1.3c-2.33,1.09-4.66,2.21-6.99,3.32c-1.74-0.79-2.98-2.57-2.98-4.62
						v-62.95c-0.02-3.49,0.04-6.99-0.06-10.48c1.46-3.51,3.06-6.99,5.13-10.5c2.07,3.51,3.67,6.99,5.11,10.5
						C1012.09,347.79,1012.17,351.3,1012.15,354.79z"/>
				</g>
				<g>
					<path d="M965.33,530.11c-2.11-2.33-3.61-4.65-5.12-6.98c0.1-2.33,0.03-4.65,0.05-6.98v-13.95v-27.9c0-2.8,2.27-5.07,5.07-5.07
						c2.8,0,5.07,2.27,5.07,5.07v27.9v13.95c0.02,2.33-0.05,4.65,0.05,6.98C968.93,525.46,967.44,527.79,965.33,530.11z"/>
				</g>
				<g>
					<path d="M928.7,512.66c-2.11-2.33-3.61-4.65-5.12-6.98c0.1-2.33,0.03-4.65,0.05-6.98v-13.95v-27.9c0-2.8,2.27-5.07,5.07-5.07
						c2.8,0,5.07,2.27,5.07,5.07v27.9v13.95c0.02,2.33-0.05,4.65,0.05,6.98C932.3,508.01,930.81,510.33,928.7,512.66z"/>
				</g>
				<g>
					<path d="M1001.96,512.66c-2.11-2.33-3.61-4.65-5.12-6.98c0.1-2.33,0.03-4.65,0.05-6.98v-13.95v-27.9c0-2.8,2.27-5.07,5.07-5.07
						c2.8,0,5.07,2.27,5.07,5.07v27.9v13.95c0.02,2.33-0.05,4.65,0.05,6.98C1005.57,508.01,1004.07,510.33,1001.96,512.66z"/>
				</g>
				<g>
					<path d="M1030.68,404.5c-4.54,4.46-9.31,8.52-14.13,12.41c-1.52,0.69-3.04,1.4-4.56,2.13c-2.33,1.09-4.66,2.21-6.99,3.32
						c-1.6,0.77-3.2,1.54-4.81,2.29l-32.68,15.57l-2.17,1.03l-2.19-1.03l-32.68-15.57l-4.83-2.29l-6.95-3.32h-0.02l-4.54-2.17
						c-4.76-3.99-9.57-7.93-14.15-12.37c6.33,0.77,12.41,2.01,18.51,3.2h0.02l10.14,4.85l6.18,2.94l30.51,14.54l30.49-14.54
						c2.05-0.99,4.12-1.97,6.18-2.94c3.39-1.6,6.77-3.2,10.14-4.89C1018.21,406.36,1024.35,405.23,1030.68,404.5z"/>
				</g>
				<g>
					<path d="M1004.14,461.43l-36.63,17.45l-2.18,1.04l-2.18-1.04l-36.63-17.45c-2.53-1.2-3.6-4.23-2.4-6.76
						c1.2-2.53,4.23-3.6,6.76-2.4l36.63,17.45h-4.36l36.63-17.45c2.53-1.2,5.55-0.13,6.76,2.4
						C1007.74,457.21,1006.67,460.23,1004.14,461.43z"/>
				</g>
			</g>
		</g>
		<g>
			<path d="M1060.49,474.43c0,52.49-42.68,95.19-95.17,95.19c-52.47,0-95.17-42.7-95.17-95.19c0-17.5,4.87-34.67,13.89-49.49
				l2.13,1.87l2.53,2.23c-8.11,13.66-12.47,29.38-12.47,45.39c0,49.15,39.96,89.11,89.09,89.11c49.12,0,89.09-39.96,89.09-89.11
				c0-16.08-4.38-31.85-12.53-45.54l4.66-4.08C1055.61,439.68,1060.49,456.9,1060.49,474.43z"/>
		</g>
	</g>
</g>
</svg>
