<svg width="308" height="253" viewBox="0 0 308 253" fill="none" xmlns="http://www.w3.org/2000/svg">
<path d="M64.936 240.94H65.4512L66.8393 249.215C66.9477 250.158 67.1267 251.086 67.2459 252.029H67.2839C67.5876 251.086 67.8695 250.158 68.1406 249.215L69.7077 244.02H70.3312L71.9308 249.215C72.1803 250.158 72.4622 251.102 72.7496 252.029H72.8201C72.9448 251.102 73.1075 250.158 73.2268 249.215L74.5606 240.94H75.0595L73.1183 252.701H72.37L70.5698 246.813C70.3746 246.135 70.2336 245.479 70.0384 244.785H69.9842C69.789 245.479 69.6263 246.135 69.4149 246.813L67.6689 252.701H66.9206L64.936 240.94Z" fill="white"/>
<path d="M81.2466 240.957H88.0787V241.456H81.8159V246.189H87.081V246.688H81.8159V252.203H88.2576V252.701H81.2466V240.957Z" fill="white"/>
<path d="M95.2632 240.957H98.1099C100.528 240.957 101.884 241.884 101.884 243.803C101.884 245.051 101.19 246.01 99.8017 246.368V246.439C101.548 246.688 102.632 247.648 102.632 249.285C102.632 251.525 101.065 252.701 98.3268 252.701H95.2686V240.957H95.2632ZM97.752 246.189C100.317 246.189 101.309 245.37 101.309 243.803C101.309 242.133 100.208 241.456 97.8605 241.456H95.8326V246.189H97.752ZM98.1099 252.203C100.637 252.203 102.057 251.313 102.057 249.318C102.057 247.539 100.631 246.683 98.1099 246.683H95.8326V252.197H98.1099V252.203Z" fill="white"/>
<path d="M123.367 240.957H126.002C129.629 240.957 131.267 243.305 131.267 246.791C131.267 250.278 129.629 252.696 126.002 252.696H123.367V240.957ZM125.931 252.203C129.277 252.203 130.665 249.887 130.665 246.791C130.665 243.695 129.277 241.456 125.931 241.456H123.936V252.203H125.931Z" fill="white"/>
<path d="M138.165 240.957H144.997V241.456H138.734V246.189H143.999V246.688H138.734V252.203H145.176V252.701H138.165V240.957Z" fill="white"/>
<path d="M151.205 240.957H151.812L154.09 248C154.551 249.459 154.871 250.527 155.369 251.969H155.44C155.939 250.527 156.259 249.459 156.72 248L158.997 240.957H159.566L155.689 252.701H155.12L151.205 240.957Z" fill="white"/>
<path d="M166.626 240.957H173.458V241.456H167.195V246.189H172.46V246.688H167.195V252.203H173.637V252.701H166.626V240.957Z" fill="white"/>
<path d="M181.283 240.957H181.814V252.203H188.077V252.701H181.283V240.957Z" fill="white"/>
<path d="M193.732 246.791C193.732 243.088 195.548 240.74 198.075 240.74C200.602 240.74 202.418 243.088 202.418 246.791C202.418 250.495 200.602 252.913 198.075 252.913C195.548 252.913 193.732 250.495 193.732 246.791ZM201.811 246.791C201.811 243.408 200.298 241.277 198.075 241.277C195.852 241.277 194.339 243.413 194.339 246.791C194.339 250.169 195.852 252.376 198.075 252.376C200.298 252.382 201.811 250.175 201.811 246.791Z" fill="white"/>
<path d="M209.175 240.957H212.233C214.868 240.957 216.359 241.813 216.359 244.161C216.359 246.401 214.863 247.507 212.233 247.507H209.744V252.701H209.175V240.957ZM212.022 247.008C214.548 247.008 215.757 246.189 215.757 244.161C215.757 242.095 214.548 241.456 212.022 241.456H209.744V247.008H212.022Z" fill="white"/>
<path d="M223.544 240.957H230.376V241.456H224.113V246.189H229.378V246.688H224.113V252.203H230.555V252.701H223.544V240.957Z" fill="white"/>
<path d="M237.631 240.957H240.868C243.184 240.957 244.642 241.813 244.642 243.982C244.642 246.048 243.184 247.149 240.868 247.149H238.201V252.701H237.631V240.957ZM240.657 246.65C242.826 246.65 244.035 245.793 244.035 243.982C244.035 242.133 242.826 241.456 240.657 241.456H238.201V246.65H240.657ZM241.367 246.938L244.821 252.701H244.144L240.727 246.97L241.367 246.938Z" fill="white"/>
<path d="M11.1252 199.785H0.0908203V195.024H17.1386V220.569H11.1252V199.785ZM9.46598 186.349C9.46598 183.952 11.2662 182.293 13.7388 182.293C16.2113 182.293 18.0115 183.952 18.0115 186.349C18.0115 188.778 16.2113 190.367 13.7388 190.367C11.2662 190.367 9.46598 188.778 9.46598 186.349Z" fill="white"/>
<path d="M37.3204 210.294V199.785H30.4883V195.301L37.5752 195.019L38.3561 187.021H43.3392V195.019H54.9537V199.78H43.3392V210.267C43.3392 214.485 44.9224 216.388 49.2386 216.388C51.3696 216.388 53.1264 215.96 54.7965 215.358L55.9623 219.734C53.6741 220.488 51.0985 221.187 47.7908 221.187C39.9773 221.187 37.3204 216.8 37.3204 210.294Z" fill="white"/>
<path d="M64.4644 217.234L67.0888 213.401C70.1361 215.423 73.6226 216.643 77.7761 216.643C81.3169 216.643 82.9761 215.293 82.9761 213.601C82.9761 211.926 81.8537 210.993 75.9054 209.762C69.0896 208.336 66.0639 205.923 66.0639 202.035C66.0639 197.595 70.109 194.401 77.2556 194.401C81.485 194.401 85.3511 196.06 87.9429 197.779L85.1776 201.472C82.705 199.877 79.7553 198.912 76.7188 198.912C73.4058 198.912 72.0393 200.192 72.0393 201.753C72.0393 203.554 73.9154 204.188 78.6979 205.224C86.8585 207.024 88.984 209.198 88.984 213.254C88.984 217.646 84.7492 221.198 76.9845 221.198C72.2237 221.187 67.631 219.387 64.4644 217.234Z" fill="white"/>
<path d="M98.4244 186.56H105.121L109.161 199.823L110.56 204.915H110.766L112.127 199.823L116.199 186.56H122.895V220.563H117.549V206.845C117.549 203.266 118.145 196.201 118.427 192.91H118.27L116.004 200.805L112.262 211.552H108.835L105.121 200.805L102.914 192.91H102.773C103.126 196.206 103.652 203.266 103.652 206.845V220.563H98.4136V186.56H98.4244Z" fill="white"/>
<path d="M130.004 217.234L132.628 213.401C135.676 215.423 139.162 216.643 143.316 216.643C146.856 216.643 148.516 215.293 148.516 213.601C148.516 211.926 147.393 210.993 141.445 209.762C134.629 208.336 131.603 205.923 131.603 202.035C131.603 197.595 135.649 194.401 142.795 194.401C147.025 194.401 150.891 196.06 153.482 197.779L150.717 201.472C148.245 199.877 145.295 198.912 142.258 198.912C138.945 198.912 137.579 200.192 137.579 201.753C137.579 203.554 139.455 204.188 144.237 205.224C152.398 207.024 154.524 209.198 154.524 213.254C154.524 217.646 150.289 221.198 142.524 221.198C137.758 221.187 133.165 219.387 130.004 217.234Z" fill="white"/>
<path d="M162.18 213.704C162.18 207.978 167.217 205.126 179.835 204.237C179.623 201.379 177.921 199.227 173.756 199.227C170.882 199.227 168.036 200.479 165.411 201.938L163.183 197.958C166.279 196.103 170.47 194.395 174.868 194.395C181.955 194.395 185.853 198.332 185.853 205.446V220.563H180.908L180.447 217.397H180.274C177.595 219.468 174.163 221.187 170.741 221.187C165.753 221.187 162.18 218.134 162.18 213.704ZM179.829 213.368V208C170.655 208.602 168.009 210.489 168.009 213.243C168.009 215.494 169.999 216.464 172.531 216.464C175.101 216.459 177.471 215.26 179.829 213.368Z" fill="white"/>
<path d="M201.969 211.264V188.604H193.445V183.844H207.987V211.579C207.987 214.989 209.999 216.285 212.58 216.285C213.903 216.285 215.308 215.976 216.951 215.293L218.349 219.739C215.839 220.672 214.098 221.192 211.111 221.192C205.141 221.187 201.969 217.532 201.969 211.264Z" fill="white"/>
<path d="M225.632 213.704C225.632 207.978 230.669 205.126 243.287 204.237C243.075 201.379 241.373 199.227 237.208 199.227C234.335 199.227 231.488 200.479 228.864 201.938L226.635 197.958C229.731 196.103 233.923 194.395 238.32 194.395C245.407 194.395 249.306 198.332 249.306 205.446V220.563H244.36L243.9 217.397H243.726C241.047 219.468 237.615 221.187 234.194 221.187C229.211 221.187 225.632 218.134 225.632 213.704ZM243.287 213.368V208C234.112 208.602 231.466 210.489 231.466 213.243C231.466 215.494 233.456 216.464 235.988 216.464C238.559 216.459 240.928 215.26 243.287 213.368Z" fill="white"/>
<path d="M263.571 210.294V199.785H256.739V195.301L263.826 195.019L264.607 187.021H269.59V195.019H281.205V199.78H269.59V210.267C269.59 214.485 271.173 216.388 275.49 216.388C277.621 216.388 279.377 215.96 281.047 215.358L282.213 219.734C279.925 220.488 277.349 221.187 274.042 221.187C266.228 221.187 263.571 216.8 263.571 210.294Z" fill="white"/>
<path d="M300.834 199.785H289.799V195.024H306.847V220.569H300.834V199.785ZM299.175 186.349C299.175 183.952 300.975 182.293 303.447 182.293C305.92 182.293 307.72 183.952 307.72 186.349C307.72 188.778 305.92 190.367 303.447 190.367C300.975 190.367 299.175 188.778 299.175 186.349Z" fill="white"/>
<path d="M64.936 240.94H65.4512L66.8393 249.215C66.9477 250.158 67.1267 251.086 67.2459 252.029H67.2839C67.5876 251.086 67.8695 250.158 68.1406 249.215L69.7077 244.02H70.3312L71.9308 249.215C72.1803 250.158 72.4622 251.102 72.7496 252.029H72.8201C72.9448 251.102 73.1075 250.158 73.2268 249.215L74.5606 240.94H75.0595L73.1183 252.701H72.37L70.5698 246.813C70.3746 246.135 70.2336 245.479 70.0384 244.785H69.9842C69.789 245.479 69.6263 246.135 69.4149 246.813L67.6689 252.701H66.9206L64.936 240.94Z" fill="white"/>
<path d="M81.2466 240.957H88.0787V241.456H81.8159V246.189H87.081V246.688H81.8159V252.203H88.2576V252.701H81.2466V240.957Z" fill="white"/>
<path d="M95.2632 240.957H98.1099C100.528 240.957 101.884 241.884 101.884 243.803C101.884 245.051 101.19 246.01 99.8017 246.368V246.439C101.548 246.688 102.632 247.648 102.632 249.285C102.632 251.525 101.065 252.701 98.3268 252.701H95.2686V240.957H95.2632ZM97.752 246.189C100.317 246.189 101.309 245.37 101.309 243.803C101.309 242.133 100.208 241.456 97.8605 241.456H95.8326V246.189H97.752ZM98.1099 252.203C100.637 252.203 102.057 251.313 102.057 249.318C102.057 247.539 100.631 246.683 98.1099 246.683H95.8326V252.197H98.1099V252.203Z" fill="white"/>
<path d="M123.367 240.957H126.002C129.629 240.957 131.267 243.305 131.267 246.791C131.267 250.278 129.629 252.696 126.002 252.696H123.367V240.957ZM125.931 252.203C129.277 252.203 130.665 249.887 130.665 246.791C130.665 243.695 129.277 241.456 125.931 241.456H123.936V252.203H125.931Z" fill="white"/>
<path d="M138.165 240.957H144.997V241.456H138.734V246.189H143.999V246.688H138.734V252.203H145.176V252.701H138.165V240.957V240.957Z" fill="white"/>
<path d="M151.205 240.957H151.812L154.09 248C154.551 249.459 154.871 250.527 155.369 251.969H155.44C155.939 250.527 156.259 249.459 156.72 248L158.997 240.957H159.566L155.689 252.701H155.12L151.205 240.957Z" fill="white"/>
<path d="M166.626 240.957H173.458V241.456H167.195V246.189H172.46V246.688H167.195V252.203H173.637V252.701H166.626V240.957V240.957Z" fill="white"/>
<path d="M181.283 240.957H181.814V252.203H188.077V252.701H181.283V240.957Z" fill="white"/>
<path d="M193.732 246.791C193.732 243.088 195.548 240.74 198.075 240.74C200.602 240.74 202.418 243.088 202.418 246.791C202.418 250.495 200.602 252.913 198.075 252.913C195.548 252.913 193.732 250.495 193.732 246.791ZM201.811 246.791C201.811 243.408 200.298 241.277 198.075 241.277C195.852 241.277 194.339 243.413 194.339 246.791C194.339 250.169 195.852 252.376 198.075 252.376C200.298 252.382 201.811 250.175 201.811 246.791Z" fill="white"/>
<path d="M209.175 240.957H212.233C214.868 240.957 216.359 241.813 216.359 244.161C216.359 246.401 214.863 247.507 212.233 247.507H209.744V252.701H209.175V240.957V240.957ZM212.022 247.008C214.548 247.008 215.757 246.189 215.757 244.161C215.757 242.095 214.548 241.456 212.022 241.456H209.744V247.008H212.022Z" fill="white"/>
<path d="M223.544 240.957H230.376V241.456H224.113V246.189H229.378V246.688H224.113V252.203H230.555V252.701H223.544V240.957Z" fill="white"/>
<path d="M237.631 240.957H240.868C243.184 240.957 244.642 241.813 244.642 243.982C244.642 246.048 243.184 247.149 240.868 247.149H238.201V252.701H237.631V240.957ZM240.657 246.65C242.826 246.65 244.035 245.793 244.035 243.982C244.035 242.133 242.826 241.456 240.657 241.456H238.201V246.65H240.657ZM241.367 246.938L244.821 252.701H244.144L240.727 246.97L241.367 246.938Z" fill="white"/>
<path d="M11.1252 199.785H0.0908203V195.024H17.1386V220.569H11.1252V199.785ZM9.46598 186.349C9.46598 183.952 11.2662 182.293 13.7388 182.293C16.2113 182.293 18.0115 183.952 18.0115 186.349C18.0115 188.778 16.2113 190.367 13.7388 190.367C11.2662 190.367 9.46598 188.778 9.46598 186.349Z" fill="white"/>
<path d="M37.3204 210.294V199.785H30.4883V195.301L37.5752 195.019L38.3561 187.021H43.3392V195.019H54.9537V199.78H43.3392V210.267C43.3392 214.485 44.9224 216.388 49.2386 216.388C51.3696 216.388 53.1264 215.96 54.7965 215.358L55.9623 219.734C53.6741 220.488 51.0985 221.187 47.7908 221.187C39.9773 221.187 37.3204 216.8 37.3204 210.294Z" fill="white"/>
<path d="M64.4644 217.234L67.0888 213.401C70.1361 215.423 73.6226 216.643 77.7761 216.643C81.3169 216.643 82.9761 215.293 82.9761 213.601C82.9761 211.926 81.8537 210.993 75.9054 209.762C69.0896 208.336 66.0639 205.923 66.0639 202.035C66.0639 197.595 70.109 194.401 77.2556 194.401C81.485 194.401 85.3511 196.06 87.9429 197.779L85.1776 201.472C82.705 199.877 79.7553 198.912 76.7188 198.912C73.4058 198.912 72.0393 200.192 72.0393 201.753C72.0393 203.554 73.9154 204.188 78.6979 205.224C86.8585 207.024 88.984 209.198 88.984 213.254C88.984 217.646 84.7492 221.198 76.9845 221.198C72.2237 221.187 67.631 219.387 64.4644 217.234Z" fill="white"/>
<path d="M98.4244 186.56H105.121L109.161 199.823L110.56 204.915H110.766L112.127 199.823L116.199 186.56H122.895V220.563H117.549V206.845C117.549 203.266 118.145 196.201 118.427 192.91H118.27L116.004 200.805L112.262 211.552H108.835L105.121 200.805L102.914 192.91H102.773C103.126 196.206 103.652 203.266 103.652 206.845V220.563H98.4136V186.56H98.4244Z" fill="white"/>
<path d="M130.004 217.234L132.628 213.401C135.676 215.423 139.162 216.643 143.316 216.643C146.856 216.643 148.516 215.293 148.516 213.601C148.516 211.926 147.393 210.993 141.445 209.762C134.629 208.336 131.603 205.923 131.603 202.035C131.603 197.595 135.649 194.401 142.795 194.401C147.025 194.401 150.891 196.06 153.482 197.779L150.717 201.472C148.245 199.877 145.295 198.912 142.258 198.912C138.945 198.912 137.579 200.192 137.579 201.753C137.579 203.554 139.455 204.188 144.237 205.224C152.398 207.024 154.524 209.198 154.524 213.254C154.524 217.646 150.289 221.198 142.524 221.198C137.758 221.187 133.165 219.387 130.004 217.234Z" fill="white"/>
<path d="M162.18 213.704C162.18 207.978 167.217 205.126 179.835 204.237C179.623 201.379 177.921 199.227 173.756 199.227C170.882 199.227 168.036 200.479 165.411 201.938L163.183 197.958C166.279 196.103 170.47 194.395 174.868 194.395C181.955 194.395 185.853 198.332 185.853 205.446V220.563H180.908L180.447 217.397H180.274C177.595 219.468 174.163 221.187 170.741 221.187C165.753 221.187 162.18 218.134 162.18 213.704ZM179.829 213.368V208C170.655 208.602 168.009 210.489 168.009 213.243C168.009 215.494 169.999 216.464 172.531 216.464C175.101 216.459 177.471 215.26 179.829 213.368Z" fill="white"/>
<path d="M201.969 211.264V188.604H193.445V183.844H207.987V211.579C207.987 214.989 209.999 216.285 212.58 216.285C213.903 216.285 215.308 215.976 216.951 215.293L218.349 219.739C215.839 220.672 214.098 221.192 211.111 221.192C205.141 221.187 201.969 217.532 201.969 211.264Z" fill="white"/>
<path d="M225.632 213.704C225.632 207.978 230.669 205.126 243.287 204.237C243.075 201.379 241.373 199.227 237.208 199.227C234.335 199.227 231.488 200.479 228.864 201.938L226.635 197.958C229.731 196.103 233.923 194.395 238.32 194.395C245.407 194.395 249.306 198.332 249.306 205.446V220.563H244.36L243.9 217.397H243.726C241.047 219.468 237.615 221.187 234.194 221.187C229.211 221.187 225.632 218.134 225.632 213.704ZM243.287 213.368V208C234.112 208.602 231.466 210.489 231.466 213.243C231.466 215.494 233.456 216.464 235.988 216.464C238.559 216.459 240.928 215.26 243.287 213.368Z" fill="white"/>
<path d="M263.571 210.294V199.785H256.739V195.301L263.826 195.019L264.607 187.021H269.59V195.019H281.205V199.78H269.59V210.267C269.59 214.485 271.173 216.388 275.49 216.388C277.621 216.388 279.377 215.96 281.047 215.358L282.213 219.734C279.925 220.488 277.349 221.187 274.042 221.187C266.228 221.187 263.571 216.8 263.571 210.294Z" fill="white"/>
<path d="M300.834 199.785H289.799V195.024H306.847V220.569H300.834V199.785ZM299.175 186.349C299.175 183.952 300.975 182.293 303.447 182.293C305.92 182.293 307.72 183.952 307.72 186.349C307.72 188.778 305.92 190.367 303.447 190.367C300.975 190.367 299.175 188.778 299.175 186.349Z" fill="white"/>
<path d="M156.796 0.721466C157.918 3.61698 158.791 6.51248 159.572 9.408C159.518 12.3035 159.556 15.199 159.545 18.0945V35.473V70.23C159.545 71.7483 158.314 72.9791 156.796 72.9791C155.278 72.9791 154.047 71.7483 154.047 70.23V35.473V18.1C154.036 15.2044 154.074 12.3089 154.02 9.41342C154.8 6.51249 155.673 3.61698 156.796 0.721466Z" fill="#3DF2F2"/>
<path d="M136.934 20.7027C136.88 22.595 136.912 24.4929 136.901 26.3852V60.5187C136.901 61.6411 136.229 62.5954 135.275 63.0238L131.506 61.2236H131.495C131.441 61.0012 131.408 60.7627 131.408 60.5187V26.3852C131.398 24.4929 131.441 22.595 131.387 20.7027C132.168 18.7994 133.035 16.9125 134.158 15.0092C135.285 16.9125 136.153 18.8048 136.934 20.7027Z" fill="#3DF2F2"/>
<path d="M182.183 26.3907V60.5241C182.183 60.7681 182.15 61.0067 182.096 61.229C180.833 61.82 179.569 62.4273 178.306 63.0292C177.363 62.6008 176.69 61.6356 176.69 60.5241V26.3907C176.679 24.4983 176.712 22.6005 176.658 20.7081C177.449 18.8048 178.317 16.9179 179.439 15.0146C180.562 16.9179 181.429 18.8048 182.21 20.7081C182.151 22.595 182.194 24.4983 182.183 26.3907Z" fill="#3DF2F2"/>
<path d="M156.796 121.455C155.652 120.191 154.838 118.933 154.02 117.67C154.074 116.406 154.036 115.148 154.047 113.885V106.321V91.1926C154.047 89.6744 155.278 88.4435 156.796 88.4435C158.314 88.4435 159.545 89.6744 159.545 91.1926V106.321V113.885C159.556 115.148 159.518 116.406 159.572 117.67C158.748 118.933 157.94 120.197 156.796 121.455Z" fill="#3DF2F2"/>
<path d="M136.934 111.993C135.79 110.729 134.976 109.471 134.158 108.208C134.212 106.944 134.174 105.686 134.185 104.423V96.8589V81.7307C134.185 80.2125 135.416 78.9816 136.934 78.9816C138.452 78.9816 139.683 80.2125 139.683 81.7307V96.8589V104.423C139.694 105.686 139.656 106.944 139.71 108.208C138.886 109.471 138.078 110.729 136.934 111.993Z" fill="#3DF2F2"/>
<path d="M176.658 111.993C175.513 110.729 174.7 109.471 173.881 108.208C173.936 106.944 173.898 105.686 173.908 104.423V96.8589V81.7307C173.908 80.2125 175.139 78.9816 176.658 78.9816C178.176 78.9816 179.407 80.2125 179.407 81.7307V96.8589V104.423C179.418 105.686 179.38 106.944 179.434 108.208C178.615 109.471 177.802 110.729 176.658 111.993Z" fill="#3DF2F2"/>
<path d="M192.23 53.3449C189.769 55.7633 187.182 57.9647 184.569 60.074C183.744 60.4482 182.92 60.8332 182.096 61.229C180.833 61.82 179.569 62.4273 178.306 63.0292C177.438 63.4467 176.571 63.8642 175.698 64.2709L157.978 72.7134L156.801 73.2719L155.614 72.7134L137.893 64.2709L135.274 63.0292L131.506 61.229H131.495L129.033 60.0523C126.452 57.8888 123.844 55.7524 121.361 53.3449C124.793 53.7625 128.09 54.4348 131.398 55.0801H131.408L136.907 57.7099L140.258 59.304L156.801 67.1881L173.334 59.304C174.445 58.7672 175.568 58.2359 176.685 57.7099C178.523 56.8423 180.356 55.9748 182.183 55.0584C185.469 54.3535 188.798 53.7408 192.23 53.3449Z" fill="#3DF2F2"/>
<path d="M177.84 84.2141L157.978 93.6761L156.796 94.24L155.614 93.6761L135.752 84.2141C134.38 83.5635 133.8 81.9205 134.45 80.5487C135.101 79.1768 136.744 78.5966 138.116 79.2473L157.978 88.7092H155.614L175.476 79.2473C176.847 78.5966 178.485 79.1768 179.141 80.5487C179.792 81.9259 179.211 83.5635 177.84 84.2141Z" fill="#3DF2F2"/>
<path d="M208.394 91.2631C208.394 119.725 185.252 142.878 156.79 142.878C128.339 142.878 105.186 119.725 105.186 91.2631C105.186 81.7741 107.827 72.464 112.718 64.4281L113.873 65.4421L115.244 66.6513C110.847 74.0582 108.483 82.582 108.483 91.2631C108.483 117.914 130.15 139.581 156.79 139.581C183.424 139.581 205.097 117.914 205.097 91.2631C205.097 82.5441 202.722 73.9931 198.303 66.57L200.83 64.3577C205.748 72.4206 208.394 81.7578 208.394 91.2631Z" fill="#3DF2F2"/>
</svg>
