<svg xmlns="http://www.w3.org/2000/svg" xmlns:xlink="http://www.w3.org/1999/xlink" version="1.1" style="" xml:space="preserve" width="1033.1034774417385" height="1080"><rect id="backgroundrect" width="100%" height="100%" x="0" y="0" fill="none" stroke="none" class="" style=""/>
<style type="text/css">
	.st0{fill:#FFFFFF;}
	.st1{display:none;}
	.st2{display:inline;}
</style>


<g class="currentLayer" style=""><title>Layer 1</title><g id="svg_2" class="">
	<g id="svg_3">
		<g id="svg_4">
			<g id="svg_5">
				<g id="svg_6">
					<path d="M513.977980030767,50.20865136110092 c7.732644610404968,19.947981748580933 13.746923751831055,39.895963497161866 19.12615478515625,59.843945245742795 c-0.37355771064758325,19.947981748580933 -0.11206731319427495,39.895963497161866 -0.1867788553237917,59.843945245742795 v119.72524626255034 v239.45049252510069 c0,10.459615898132324 -8.479760031700135,18.939375929832458 -18.939375929832458,18.939375929832458 c-10.459615898132324,0 -18.939375929832458,-8.479760031700135 -18.939375929832458,-18.939375929832458 v-239.45049252510069 V169.93389762365132 c-0.0747115421295167,-19.947981748580933 0.1867788553237917,-39.895963497161866 -0.1867788553237917,-59.843945245742795 C500.23105627893574,90.10461485826272 506.2453354203617,70.15663310968193 513.977980030767,50.20865136110092 z" id="svg_7"/>
				</g>
				<g id="svg_8">
					<path d="M377.14379062055696,187.86466773473535 c-0.37355771064758325,13.037164101600649 -0.1494230842590334,26.111683974266054 -0.2241346263885498,39.1488480758667 v235.15457885265351 c0,7.732644610404968 -4.632115612030029,14.307260317802431 -11.20673131942749,17.258366231918334 l-25.96226089000702,-12.402115993499757 h-0.0747115421295167 c-0.37355771064758325,-1.531586613655091 -0.5976923370361336,-3.175240540504457 -0.5976923370361336,-4.856250238418579 v-235.15457885265351 c-0.0747115421295167,-13.037164101600649 0.2241346263885498,-26.111683974266054 -0.1494230842590334,-39.1488480758667 c5.379231033325195,-13.111875643730162 11.356154403686524,-26.111683974266054 19.088799014091492,-39.223559617996216 C365.7876362168704,161.7529837604693 371.7645595872318,174.79014786206994 377.14379062055696,187.86466773473535 z" id="svg_9"/>
				</g>
				<g id="svg_10">
					<path d="M688.8777001559652,227.0508715816668 v235.15457885265351 c0,1.6810096979141245 -0.2241346263885498,3.32466362476349 -0.5976923370361336,4.856250238418579 c-8.703894658088684,4.071779046058655 -17.407789316177368,8.255625405311584 -26.111683974266054,12.402115993499757 c-6.499904165267945,-2.9511059141159057 -11.132019777297973,-9.600433163642885 -11.132019777297973,-17.258366231918334 v-235.15457885265351 c-0.0747115421295167,-13.037164101600649 0.1494230842590334,-26.111683974266054 -0.2241346263885498,-39.1488480758667 c5.453942575454712,-13.111875643730162 11.43086594581604,-26.111683974266054 19.16351055622101,-39.223559617996216 c7.732644610404968,13.111875643730162 13.709567980766296,26.111683974266054 19.088799014091492,39.223559617996216 C688.6535655295766,200.901831836336 688.9524116980942,214.01370748006616 688.8777001559652,227.0508715816668 z" id="svg_11"/>
				</g>
				<g id="svg_12">
					<path d="M513.977980030767,881.9722498890092 c-7.882067694664001,-8.703894658088684 -13.485433354377747,-17.37043354511261 -19.12615478515625,-26.074328203201297 c0.37355771064758325,-8.703894658088684 0.11206731319427495,-17.37043354511261 0.1867788553237917,-26.074328203201297 v-52.11130063533783 v-104.22260127067565 c0,-10.459615898132324 8.479760031700135,-18.939375929832458 18.939375929832458,-18.939375929832458 c10.459615898132324,0 18.939375929832458,8.479760031700135 18.939375929832458,18.939375929832458 v104.22260127067565 v52.11130063533783 c0.0747115421295167,8.703894658088684 -0.1867788553237917,17.37043354511261 0.1867788553237917,26.074328203201297 C527.4260576140796,864.6018163438966 521.8600477254308,873.3057110019854 513.977980030767,881.9722498890092 z" id="svg_13"/>
				</g>
				<g id="svg_14">
					<path d="M377.14379062055696,816.7864293810057 c-7.882067694664001,-8.703894658088684 -13.485433354377747,-17.37043354511261 -19.12615478515625,-26.074328203201297 c0.37355771064758325,-8.703894658088684 0.11206731319427495,-17.37043354511261 0.1867788553237917,-26.074328203201297 v-52.11130063533783 v-104.22260127067565 c0,-10.459615898132324 8.479760031700135,-18.939375929832458 18.939375929832458,-18.939375929832458 c10.459615898132324,0 18.939375929832458,8.479760031700135 18.939375929832458,18.939375929832458 v104.22260127067565 v52.11130063533783 c0.0747115421295167,8.703894658088684 -0.1867788553237917,17.37043354511261 0.1867788553237917,26.074328203201297 C390.59186820387004,799.4159958358932 385.02585831522083,808.082534722917 377.14379062055696,816.7864293810057 z" id="svg_15"/>
				</g>
				<g id="svg_16">
					<path d="M650.8121694409765,816.7864293810057 c-7.882067694664001,-8.703894658088684 -13.485433354377747,-17.37043354511261 -19.12615478515625,-26.074328203201297 c0.37355771064758325,-8.703894658088684 0.11206731319427495,-17.37043354511261 0.1867788553237917,-26.074328203201297 v-52.11130063533783 v-104.22260127067565 c0,-10.459615898132324 8.479760031700135,-18.939375929832458 18.939375929832458,-18.939375929832458 c10.459615898132324,0 18.939375929832458,8.479760031700135 18.939375929832458,18.939375929832458 v104.22260127067565 v52.11130063533783 c0.0747115421295167,8.703894658088684 -0.1867788553237917,17.37043354511261 0.1867788553237917,26.074328203201297 C664.2976027953541,799.4159958358932 658.6942371356404,808.082534722917 650.8121694409765,816.7864293810057 z" id="svg_17"/>
				</g>
				<g id="svg_18">
					<path d="M758.0979439389625,412.7464095445803 c-16.95952006340027,16.6606738948822 -34.77822286128998,31.82711694717407 -52.78370451450348,46.358511891365055 c-5.678077201843262,2.577548203468325 -11.356154403686524,5.229807949066162 -17.034231605529786,7.956779236793517 c-8.703894658088684,4.071779046058655 -17.407789316177368,8.255625405311584 -26.111683974266054,12.402115993499757 c-5.9769233703613285,2.876394371986389 -11.953846740722657,5.752788743972778 -17.968125882148744,8.554471573829652 l-122.07865983963012,58.162935547828674 l-8.106202321052551,3.847644419670105 l-8.180913863182068,-3.847644419670105 l-122.07865983963012,-58.162935547828674 l-18.04283742427826,-8.554471573829652 l-25.96226089000702,-12.402115993499757 h-0.0747115421295167 l-16.95952006340027,-8.106202321052551 c-17.78134702682495,-14.904952654838564 -35.749472908973694,-29.623126454353333 -52.858416056633,-46.20908880710601 c23.646203083992006,2.876394371986389 46.358511891365055,7.508509984016418 69.14553224086762,11.953846740722657 h0.0747115421295167 l37.878751859664916,18.117548966407774 l23.08586651802063,10.982596693038941 l113.97245751857758,54.31529112815856 l113.89774597644805,-54.31529112815856 c7.657933068275451,-3.6982213354110716 15.39057767868042,-7.3590868997573855 23.08586651802063,-10.982596693038941 c12.663606390953065,-5.9769233703613285 25.289857010841367,-11.953846740722657 37.878751859664916,-18.266972050666816 C711.5152974212087,419.6945829626254 734.45174085497,415.4733808323076 758.0979439389625,412.7464095445803 z" id="svg_19"/>
				</g>
				<g id="svg_20">
					<path d="M658.9557275330935,625.4128142162494 l-136.83418941020966,65.18582050800323 l-8.14355809211731,3.8850001907348632 l-8.14355809211731,-3.8850001907348632 l-136.83418941020966,-65.18582050800323 c-9.45101007938385,-4.482692527770996 -13.448077583312989,-15.801491160392763 -8.965385055541992,-25.25250123977661 c4.482692527770996,-9.45101007938385 15.801491160392763,-13.448077583312989 25.25250123977661,-8.965385055541992 l136.83418941020966,65.18582050800323 h-16.28711618423462 l136.83418941020966,-65.18582050800323 c9.45101007938385,-4.482692527770996 20.732452940940856,-0.4856250238418582 25.25250123977661,8.965385055541992 C672.4038051164066,609.6486788269215 668.4067376124772,620.9301216884783 658.9557275330935,625.4128142162494 z" id="svg_21"/>
				</g>
			</g>
		</g>
		<g id="svg_22">
			<path d="M869.4554974830066,673.9753166004352 c0,196.08044231891634 -159.43443090438842,355.58958476543427 -355.51487322330473,355.58958476543427 c-196.0057307767868,0 -355.51487322330473,-159.50914244651796 -355.51487322330473,-355.58958476543427 c0,-65.37259936332703 18.19226050853729,-129.51245828151704 51.88716600894928,-184.87371099948885 l7.956779236793517,6.985529189109803 l9.45101007938385,8.3303369474411 c-30.29553033351898,51.02798327445984 -46.5826465177536,109.75125538825988 -46.5826465177536,169.55784486293794 c0,183.60361478328704 149.27366117477416,332.8772759580612 332.8025644159317,332.8772759580612 c183.49154747009277,0 332.8025644159317,-149.27366117477416 332.8025644159317,-332.8772759580612 c0,-60.06807987213134 -16.361827726364137,-118.9781308412552 -46.80678114414215,-170.1181814289093 l17.407789316177368,-15.241154594421387 C851.2258812034042,544.1640121503999 869.4554974830066,608.4906499239137 869.4554974830066,673.9753166004352 z" id="svg_23"/>
		</g>
	</g>
</g></g></svg>