<svg width="44" height="60" viewBox="0 0 44 60" fill="none" xmlns="http://www.w3.org/2000/svg">
<path d="M22.3711 0.55542C22.8393 1.76318 23.2034 2.97094 23.5291 4.1787C23.5065 5.38646 23.5224 6.59422 23.5178 7.80198V15.0508V29.5485C23.5178 30.1817 23.0044 30.6951 22.3711 30.6951C21.7379 30.6951 21.2244 30.1817 21.2244 29.5485V15.0508V7.80424C21.2199 6.59648 21.2358 5.38872 21.2131 4.18096C21.5388 2.97094 21.903 1.76318 22.3711 0.55542Z" fill="#3DF2F2"/>
<path d="M14.0865 8.88989C14.0638 9.67923 14.0774 10.4708 14.0729 11.2602V25.4977C14.0729 25.9659 13.7924 26.364 13.3944 26.5426L11.8225 25.7917H11.8179C11.7953 25.699 11.7818 25.5995 11.7818 25.4977V11.2602C11.7772 10.4708 11.7953 9.67923 11.7727 8.88989C12.0984 8.09602 12.4603 7.30894 12.9285 6.51508C13.3989 7.30894 13.7608 8.09828 14.0865 8.88989Z" fill="#3DF2F2"/>
<path d="M32.9605 11.2624V25.5C32.9605 25.6017 32.9469 25.7013 32.9243 25.794C32.3973 26.0405 31.8703 26.2938 31.3433 26.5449C30.9498 26.3662 30.6693 25.9636 30.6693 25.5V11.2624C30.6648 10.4731 30.6784 9.68146 30.6558 8.89211C30.986 8.09825 31.3479 7.31117 31.816 6.5173C32.2842 7.31117 32.6461 8.09825 32.9718 8.89211C32.9469 9.67919 32.965 10.4731 32.9605 11.2624Z" fill="#3DF2F2"/>
<path d="M22.3711 50.9149C21.8939 50.388 21.5547 49.8632 21.2131 49.3363C21.2358 48.8093 21.2199 48.2846 21.2244 47.7576V44.6025V38.2923C21.2244 37.659 21.7379 37.1456 22.3711 37.1456C23.0044 37.1456 23.5178 37.659 23.5178 38.2923V44.6025V47.7576C23.5224 48.2846 23.5065 48.8093 23.5291 49.3363C23.1854 49.8632 22.8484 50.3902 22.3711 50.9149Z" fill="#3DF2F2"/>
<path d="M14.0865 46.9682C13.6092 46.4412 13.27 45.9165 12.9285 45.3895C12.9511 44.8626 12.9352 44.3378 12.9398 43.8109V40.6558V34.3455C12.9398 33.7123 13.4532 33.1989 14.0865 33.1989C14.7198 33.1989 15.2332 33.7123 15.2332 34.3455V40.6558V43.8109C15.2377 44.3378 15.2219 44.8626 15.2445 45.3895C14.9007 45.9165 14.5637 46.4412 14.0865 46.9682Z" fill="#3DF2F2"/>
<path d="M30.6558 46.9682C30.1786 46.4412 29.8393 45.9165 29.4978 45.3895C29.5204 44.8626 29.5046 44.3378 29.5091 43.8109V40.6558V34.3455C29.5091 33.7123 30.0225 33.1989 30.6558 33.1989C31.2891 33.1989 31.8025 33.7123 31.8025 34.3455V40.6558V43.8109C31.807 44.3378 31.7912 44.8626 31.8138 45.3895C31.4723 45.9165 31.133 46.4412 30.6558 46.9682Z" fill="#3DF2F2"/>
<path d="M37.1516 22.5054C36.1247 23.5142 35.0459 24.4324 33.9557 25.3122C33.612 25.4683 33.2682 25.6289 32.9244 25.794C32.3974 26.0405 31.8704 26.2938 31.3435 26.5449C30.9816 26.719 30.6197 26.8932 30.2556 27.0628L22.8642 30.5843L22.3735 30.8173L21.8781 30.5843L14.4868 27.0628L13.3944 26.5449L11.8225 25.794H11.818L10.7912 25.3032C9.71458 24.4008 8.62669 23.5096 7.59082 22.5054C9.02249 22.6796 10.3976 22.96 11.7773 23.2292H11.7818L14.0752 24.3261L15.4729 24.9911L22.3735 28.2796L29.2695 24.9911C29.7331 24.7672 30.2013 24.5455 30.6672 24.3261C31.4339 23.9642 32.1984 23.6024 32.9606 23.2201C34.3312 22.9261 35.7199 22.6705 37.1516 22.5054Z" fill="#3DF2F2"/>
<path d="M31.149 35.3814L22.8643 39.3281L22.3713 39.5634L21.8782 39.3281L13.5935 35.3814C13.0213 35.11 12.7793 34.4247 13.0507 33.8525C13.3221 33.2803 14.0074 33.0383 14.5796 33.3097L22.8643 37.2564H21.8782L30.1629 33.3097C30.7351 33.0383 31.4182 33.2803 31.6918 33.8525C31.9632 34.427 31.7212 35.11 31.149 35.3814Z" fill="#3DF2F2"/>
<path d="M43.8936 38.3217C43.8936 50.1935 34.2406 59.851 22.3688 59.851C10.5016 59.851 0.843994 50.1935 0.843994 38.3217C0.843994 34.3637 1.94544 30.4803 3.98552 27.1284L4.46727 27.5513L5.03949 28.0557C3.20523 31.1452 2.21911 34.7007 2.21911 38.3217C2.21911 49.438 11.257 58.4759 22.3688 58.4759C33.4784 58.4759 42.5185 49.438 42.5185 38.3217C42.5185 34.6848 41.5279 31.1181 39.6846 28.0218L40.7385 27.099C42.7899 30.4622 43.8936 34.3569 43.8936 38.3217Z" fill="#3DF2F2"/>
</svg>
