<?xml version="1.0" encoding="utf-8"?>
<!-- Generator: Adobe Illustrator 25.0.0, SVG Export Plug-In . SVG Version: 6.00 Build 0)  -->
<svg version="1.1" id="Layer_1" xmlns="http://www.w3.org/2000/svg" xmlns:xlink="http://www.w3.org/1999/xlink" x="0px" y="0px"
	 viewBox="0 0 1920 1080" style="enable-background:new 0 0 1920 1080;" xml:space="preserve">
<style type="text/css">
	.st0{fill:#FFFFFF;}
	.st1{display:none;}
	.st2{display:inline;}
</style>
<rect class="st0" width="1920" height="1080"/>
<g>
	<g>
		<g>
			<g>
				<g>
					<path d="M965.33,307.45c2.07,5.34,3.68,10.68,5.12,16.02c-0.1,5.34-0.03,10.68-0.05,16.02v32.05v64.1
						c0,2.8-2.27,5.07-5.07,5.07c-2.8,0-5.07-2.27-5.07-5.07v-64.1V339.5c-0.02-5.34,0.05-10.68-0.05-16.02
						C961.65,318.13,963.26,312.79,965.33,307.45z"/>
				</g>
				<g>
					<path d="M928.7,344.3c-0.1,3.49-0.04,6.99-0.06,10.48v62.95c0,2.07-1.24,3.83-3,4.62l-6.95-3.32h-0.02
						c-0.1-0.41-0.16-0.85-0.16-1.3v-62.95c-0.02-3.49,0.06-6.99-0.04-10.48c1.44-3.51,3.04-6.99,5.11-10.5
						C925.66,337.31,927.26,340.8,928.7,344.3z"/>
				</g>
				<g>
					<path d="M1012.15,354.79v62.95c0,0.45-0.06,0.89-0.16,1.3c-2.33,1.09-4.66,2.21-6.99,3.32c-1.74-0.79-2.98-2.57-2.98-4.62
						v-62.95c-0.02-3.49,0.04-6.99-0.06-10.48c1.46-3.51,3.06-6.99,5.13-10.5c2.07,3.51,3.67,6.99,5.11,10.5
						C1012.09,347.79,1012.17,351.3,1012.15,354.79z"/>
				</g>
				<g>
					<path d="M965.33,530.11c-2.11-2.33-3.61-4.65-5.12-6.98c0.1-2.33,0.03-4.65,0.05-6.98v-13.95v-27.9c0-2.8,2.27-5.07,5.07-5.07
						c2.8,0,5.07,2.27,5.07,5.07v27.9v13.95c0.02,2.33-0.05,4.65,0.05,6.98C968.93,525.46,967.44,527.79,965.33,530.11z"/>
				</g>
				<g>
					<path d="M928.7,512.66c-2.11-2.33-3.61-4.65-5.12-6.98c0.1-2.33,0.03-4.65,0.05-6.98v-13.95v-27.9c0-2.8,2.27-5.07,5.07-5.07
						c2.8,0,5.07,2.27,5.07,5.07v27.9v13.95c0.02,2.33-0.05,4.65,0.05,6.98C932.3,508.01,930.81,510.33,928.7,512.66z"/>
				</g>
				<g>
					<path d="M1001.96,512.66c-2.11-2.33-3.61-4.65-5.12-6.98c0.1-2.33,0.03-4.65,0.05-6.98v-13.95v-27.9c0-2.8,2.27-5.07,5.07-5.07
						c2.8,0,5.07,2.27,5.07,5.07v27.9v13.95c0.02,2.33-0.05,4.65,0.05,6.98C1005.57,508.01,1004.07,510.33,1001.96,512.66z"/>
				</g>
				<g>
					<path d="M1030.68,404.5c-4.54,4.46-9.31,8.52-14.13,12.41c-1.52,0.69-3.04,1.4-4.56,2.13c-2.33,1.09-4.66,2.21-6.99,3.32
						c-1.6,0.77-3.2,1.54-4.81,2.29l-32.68,15.57l-2.17,1.03l-2.19-1.03l-32.68-15.57l-4.83-2.29l-6.95-3.32h-0.02l-4.54-2.17
						c-4.76-3.99-9.57-7.93-14.15-12.37c6.33,0.77,12.41,2.01,18.51,3.2h0.02l10.14,4.85l6.18,2.94l30.51,14.54l30.49-14.54
						c2.05-0.99,4.12-1.97,6.18-2.94c3.39-1.6,6.77-3.2,10.14-4.89C1018.21,406.36,1024.35,405.23,1030.68,404.5z"/>
				</g>
				<g>
					<path d="M1004.14,461.43l-36.63,17.45l-2.18,1.04l-2.18-1.04l-36.63-17.45c-2.53-1.2-3.6-4.23-2.4-6.76
						c1.2-2.53,4.23-3.6,6.76-2.4l36.63,17.45h-4.36l36.63-17.45c2.53-1.2,5.55-0.13,6.76,2.4
						C1007.74,457.21,1006.67,460.23,1004.14,461.43z"/>
				</g>
			</g>
		</g>
		<g>
			<path d="M1060.49,474.43c0,52.49-42.68,95.19-95.17,95.19c-52.47,0-95.17-42.7-95.17-95.19c0-17.5,4.87-34.67,13.89-49.49
				l2.13,1.87l2.53,2.23c-8.11,13.66-12.47,29.38-12.47,45.39c0,49.15,39.96,89.11,89.09,89.11c49.12,0,89.09-39.96,89.09-89.11
				c0-16.08-4.38-31.85-12.53-45.54l4.66-4.08C1055.61,439.68,1060.49,456.9,1060.49,474.43z"/>
		</g>
	</g>
</g>
</svg>
