<svg width="729" height="538" viewBox="0 0 729 538" fill="none" xmlns="http://www.w3.org/2000/svg">
<path d="M199.92 483.47H200.87L203.43 498.73C203.63 500.47 203.96 502.18 204.18 503.92H204.25C204.81 502.18 205.33 500.47 205.83 498.73L208.72 489.15H209.87L212.82 498.73C213.28 500.47 213.8 502.21 214.33 503.92H214.46C214.69 502.21 214.99 500.47 215.21 498.73L217.67 483.47H218.59L215.01 505.16H213.63L210.31 494.3C209.95 493.05 209.69 491.84 209.33 490.56H209.23C208.87 491.84 208.57 493.05 208.18 494.3L204.96 505.16H203.58L199.92 483.47Z" fill="black"/>
<path d="M230 483.5H242.6V484.42H231.05V493.15H240.76V494.07H231.05V504.24H242.93V505.16H230V483.5Z" fill="black"/>
<path d="M255.85 483.5H261.1C265.56 483.5 268.06 485.21 268.06 488.75C268.06 491.05 266.78 492.82 264.22 493.48V493.61C267.44 494.07 269.44 495.84 269.44 498.86C269.44 502.99 266.55 505.16 261.5 505.16H255.86V483.5H255.85ZM260.44 493.15C265.17 493.15 267 491.64 267 488.75C267 485.67 264.97 484.42 260.64 484.42H256.9V493.15H260.44ZM261.1 504.24C265.76 504.24 268.38 502.6 268.38 498.92C268.38 495.64 265.75 494.06 261.1 494.06H256.9V504.23H261.1V504.24Z" fill="black"/>
<path d="M307.68 483.5H312.54C319.23 483.5 322.25 487.83 322.25 494.26C322.25 500.69 319.23 505.15 312.54 505.15H307.68V483.5ZM312.41 504.24C318.58 504.24 321.14 499.97 321.14 494.26C321.14 488.55 318.58 484.42 312.41 484.42H308.73V504.24H312.41Z" fill="black"/>
<path d="M334.97 483.5H347.57V484.42H336.02V493.15H345.73V494.07H336.02V504.24H347.9V505.16H334.97V483.5V483.5Z" fill="black"/>
<path d="M359.02 483.5H360.14L364.34 496.49C365.19 499.18 365.78 501.15 366.7 503.81H366.83C367.75 501.15 368.34 499.18 369.19 496.49L373.39 483.5H374.44L367.29 505.16H366.24L359.02 483.5Z" fill="black"/>
<path d="M387.46 483.5H400.06V484.42H388.51V493.15H398.22V494.07H388.51V504.24H400.39V505.16H387.46V483.5V483.5Z" fill="black"/>
<path d="M414.49 483.5H415.47V504.24H427.02V505.16H414.49V483.5Z" fill="black"/>
<path d="M437.45 494.26C437.45 487.43 440.8 483.1 445.46 483.1C450.12 483.1 453.47 487.43 453.47 494.26C453.47 501.09 450.12 505.55 445.46 505.55C440.8 505.55 437.45 501.09 437.45 494.26ZM452.35 494.26C452.35 488.02 449.56 484.09 445.46 484.09C441.36 484.09 438.57 488.03 438.57 494.26C438.57 500.49 441.36 504.56 445.46 504.56C449.56 504.57 452.35 500.5 452.35 494.26Z" fill="black"/>
<path d="M465.93 483.5H471.57C476.43 483.5 479.18 485.08 479.18 489.41C479.18 493.54 476.42 495.58 471.57 495.58H466.98V505.16H465.93V483.5V483.5ZM471.18 494.66C475.84 494.66 478.07 493.15 478.07 489.41C478.07 485.6 475.84 484.42 471.18 484.42H466.98V494.66H471.18Z" fill="black"/>
<path d="M492.43 483.5H505.03V484.42H493.48V493.15H503.19V494.07H493.48V504.24H505.36V505.16H492.43V483.5Z" fill="black"/>
<path d="M518.41 483.5H524.38C528.65 483.5 531.34 485.08 531.34 489.08C531.34 492.89 528.65 494.92 524.38 494.92H519.46V505.16H518.41V483.5ZM523.99 494C527.99 494 530.22 492.42 530.22 489.08C530.22 485.67 527.99 484.42 523.99 484.42H519.46V494H523.99ZM525.3 494.53L531.67 505.16H530.42L524.12 494.59L525.3 494.53Z" fill="black"/>
<path d="M100.68 407.57H80.3301V398.79H111.77V445.9H100.68V407.57ZM97.6201 382.79C97.6201 378.37 100.94 375.31 105.5 375.31C110.06 375.31 113.38 378.37 113.38 382.79C113.38 387.27 110.06 390.2 105.5 390.2C100.94 390.2 97.6201 387.27 97.6201 382.79Z" fill="black"/>
<path d="M148.99 426.95V407.57H136.39V399.3L149.46 398.78L150.9 384.03H160.09V398.78H181.51V407.56H160.09V426.9C160.09 434.68 163.01 438.19 170.97 438.19C174.9 438.19 178.14 437.4 181.22 436.29L183.37 444.36C179.15 445.75 174.4 447.04 168.3 447.04C153.89 447.04 148.99 438.95 148.99 426.95Z" fill="black"/>
<path d="M199.05 439.75L203.89 432.68C209.51 436.41 215.94 438.66 223.6 438.66C230.13 438.66 233.19 436.17 233.19 433.05C233.19 429.96 231.12 428.24 220.15 425.97C207.58 423.34 202 418.89 202 411.72C202 403.53 209.46 397.64 222.64 397.64C230.44 397.64 237.57 400.7 242.35 403.87L237.25 410.68C232.69 407.74 227.25 405.96 221.65 405.96C215.54 405.96 213.02 408.32 213.02 411.2C213.02 414.52 216.48 415.69 225.3 417.6C240.35 420.92 244.27 424.93 244.27 432.41C244.27 440.51 236.46 447.06 222.14 447.06C213.36 447.04 204.89 443.72 199.05 439.75Z" fill="black"/>
<path d="M261.68 383.18H274.03L281.48 407.64L284.06 417.03H284.44L286.95 407.64L294.46 383.18H306.81V445.89H296.95V420.59C296.95 413.99 298.05 400.96 298.57 394.89H298.28L294.1 409.45L287.2 429.27H280.88L274.03 409.45L269.96 394.89H269.7C270.35 400.97 271.32 413.99 271.32 420.59V445.89H261.66V383.18H261.68Z" fill="black"/>
<path d="M319.92 439.75L324.76 432.68C330.38 436.41 336.81 438.66 344.47 438.66C351 438.66 354.06 436.17 354.06 433.05C354.06 429.96 351.99 428.24 341.02 425.97C328.45 423.34 322.87 418.89 322.87 411.72C322.87 403.53 330.33 397.64 343.51 397.64C351.31 397.64 358.44 400.7 363.22 403.87L358.12 410.68C353.56 407.74 348.12 405.96 342.52 405.96C336.41 405.96 333.89 408.32 333.89 411.2C333.89 414.52 337.35 415.69 346.17 417.6C361.22 420.92 365.14 424.93 365.14 432.41C365.14 440.51 357.33 447.06 343.01 447.06C334.22 447.04 325.75 443.72 319.92 439.75Z" fill="black"/>
<path d="M379.26 433.24C379.26 422.68 388.55 417.42 411.82 415.78C411.43 410.51 408.29 406.54 400.61 406.54C395.31 406.54 390.06 408.85 385.22 411.54L381.11 404.2C386.82 400.78 394.55 397.63 402.66 397.63C415.73 397.63 422.92 404.89 422.92 418.01V445.89H413.8L412.95 440.05H412.63C407.69 443.87 401.36 447.04 395.05 447.04C385.85 447.04 379.26 441.41 379.26 433.24ZM411.81 432.62V422.72C394.89 423.83 390.01 427.31 390.01 432.39C390.01 436.54 393.68 438.33 398.35 438.33C403.09 438.32 407.46 436.11 411.81 432.62Z" fill="black"/>
<path d="M452.64 428.74V386.95H436.92V378.17H463.74V429.32C463.74 435.61 467.45 438 472.21 438C474.65 438 477.24 437.43 480.27 436.17L482.85 444.37C478.22 446.09 475.01 447.05 469.5 447.05C458.49 447.04 452.64 440.3 452.64 428.74Z" fill="black"/>
<path d="M496.28 433.24C496.28 422.68 505.57 417.42 528.84 415.78C528.45 410.51 525.31 406.54 517.63 406.54C512.33 406.54 507.08 408.85 502.24 411.54L498.13 404.2C503.84 400.78 511.57 397.63 519.68 397.63C532.75 397.63 539.94 404.89 539.94 418.01V445.89H530.82L529.97 440.05H529.65C524.71 443.87 518.38 447.04 512.07 447.04C502.88 447.04 496.28 441.41 496.28 433.24ZM528.84 432.62V422.72C511.92 423.83 507.04 427.31 507.04 432.39C507.04 436.54 510.71 438.33 515.38 438.33C520.12 438.32 524.49 436.11 528.84 432.62Z" fill="black"/>
<path d="M566.25 426.95V407.57H553.65V399.3L566.72 398.78L568.16 384.03H577.35V398.78H598.77V407.56H577.35V426.9C577.35 434.68 580.27 438.19 588.23 438.19C592.16 438.19 595.4 437.4 598.48 436.29L600.63 444.36C596.41 445.75 591.66 447.04 585.56 447.04C571.15 447.04 566.25 438.95 566.25 426.95Z" fill="black"/>
<path d="M634.97 407.57H614.62V398.79H646.06V445.9H634.97V407.57V407.57ZM631.91 382.79C631.91 378.37 635.23 375.31 639.79 375.31C644.35 375.31 647.67 378.37 647.67 382.79C647.67 387.27 644.35 390.2 639.79 390.2C635.23 390.2 631.91 387.27 631.91 382.79Z" fill="black"/>
<path d="M199.92 483.47H200.87L203.43 498.73C203.63 500.47 203.96 502.18 204.18 503.92H204.25C204.81 502.18 205.33 500.47 205.83 498.73L208.72 489.15H209.87L212.82 498.73C213.28 500.47 213.8 502.21 214.33 503.92H214.46C214.69 502.21 214.99 500.47 215.21 498.73L217.67 483.47H218.59L215.01 505.16H213.63L210.31 494.3C209.95 493.05 209.69 491.84 209.33 490.56H209.23C208.87 491.84 208.57 493.05 208.18 494.3L204.96 505.16H203.58L199.92 483.47Z" fill="black"/>
<path d="M230 483.5H242.6V484.42H231.05V493.15H240.76V494.07H231.05V504.24H242.93V505.16H230V483.5Z" fill="black"/>
<path d="M255.85 483.5H261.1C265.56 483.5 268.06 485.21 268.06 488.75C268.06 491.05 266.78 492.82 264.22 493.48V493.61C267.44 494.07 269.44 495.84 269.44 498.86C269.44 502.99 266.55 505.16 261.5 505.16H255.86V483.5H255.85ZM260.44 493.15C265.17 493.15 267 491.64 267 488.75C267 485.67 264.97 484.42 260.64 484.42H256.9V493.15H260.44ZM261.1 504.24C265.76 504.24 268.38 502.6 268.38 498.92C268.38 495.64 265.75 494.06 261.1 494.06H256.9V504.23H261.1V504.24Z" fill="black"/>
<path d="M307.68 483.5H312.54C319.23 483.5 322.25 487.83 322.25 494.26C322.25 500.69 319.23 505.15 312.54 505.15H307.68V483.5ZM312.41 504.24C318.58 504.24 321.14 499.97 321.14 494.26C321.14 488.55 318.58 484.42 312.41 484.42H308.73V504.24H312.41Z" fill="black"/>
<path d="M334.97 483.5H347.57V484.42H336.02V493.15H345.73V494.07H336.02V504.24H347.9V505.16H334.97V483.5V483.5Z" fill="black"/>
<path d="M359.02 483.5H360.14L364.34 496.49C365.19 499.18 365.78 501.15 366.7 503.81H366.83C367.75 501.15 368.34 499.18 369.19 496.49L373.39 483.5H374.44L367.29 505.16H366.24L359.02 483.5Z" fill="black"/>
<path d="M387.46 483.5H400.06V484.42H388.51V493.15H398.22V494.07H388.51V504.24H400.39V505.16H387.46V483.5V483.5Z" fill="black"/>
<path d="M414.49 483.5H415.47V504.24H427.02V505.16H414.49V483.5Z" fill="black"/>
<path d="M437.45 494.26C437.45 487.43 440.8 483.1 445.46 483.1C450.12 483.1 453.47 487.43 453.47 494.26C453.47 501.09 450.12 505.55 445.46 505.55C440.8 505.55 437.45 501.09 437.45 494.26ZM452.35 494.26C452.35 488.02 449.56 484.09 445.46 484.09C441.36 484.09 438.57 488.03 438.57 494.26C438.57 500.49 441.36 504.56 445.46 504.56C449.56 504.57 452.35 500.5 452.35 494.26Z" fill="black"/>
<path d="M465.93 483.5H471.57C476.43 483.5 479.18 485.08 479.18 489.41C479.18 493.54 476.42 495.58 471.57 495.58H466.98V505.16H465.93V483.5V483.5ZM471.18 494.66C475.84 494.66 478.07 493.15 478.07 489.41C478.07 485.6 475.84 484.42 471.18 484.42H466.98V494.66H471.18Z" fill="black"/>
<path d="M492.43 483.5H505.03V484.42H493.48V493.15H503.19V494.07H493.48V504.24H505.36V505.16H492.43V483.5Z" fill="black"/>
<path d="M518.41 483.5H524.38C528.65 483.5 531.34 485.08 531.34 489.08C531.34 492.89 528.65 494.92 524.38 494.92H519.46V505.16H518.41V483.5ZM523.99 494C527.99 494 530.22 492.42 530.22 489.08C530.22 485.67 527.99 484.42 523.99 484.42H519.46V494H523.99ZM525.3 494.53L531.67 505.16H530.42L524.12 494.59L525.3 494.53Z" fill="black"/>
<path d="M100.68 407.57H80.3301V398.79H111.77V445.9H100.68V407.57ZM97.6201 382.79C97.6201 378.37 100.94 375.31 105.5 375.31C110.06 375.31 113.38 378.37 113.38 382.79C113.38 387.27 110.06 390.2 105.5 390.2C100.94 390.2 97.6201 387.27 97.6201 382.79Z" fill="black"/>
<path d="M148.99 426.95V407.57H136.39V399.3L149.46 398.78L150.9 384.03H160.09V398.78H181.51V407.56H160.09V426.9C160.09 434.68 163.01 438.19 170.97 438.19C174.9 438.19 178.14 437.4 181.22 436.29L183.37 444.36C179.15 445.75 174.4 447.04 168.3 447.04C153.89 447.04 148.99 438.95 148.99 426.95Z" fill="black"/>
<path d="M199.05 439.75L203.89 432.68C209.51 436.41 215.94 438.66 223.6 438.66C230.13 438.66 233.19 436.17 233.19 433.05C233.19 429.96 231.12 428.24 220.15 425.97C207.58 423.34 202 418.89 202 411.72C202 403.53 209.46 397.64 222.64 397.64C230.44 397.64 237.57 400.7 242.35 403.87L237.25 410.68C232.69 407.74 227.25 405.96 221.65 405.96C215.54 405.96 213.02 408.32 213.02 411.2C213.02 414.52 216.48 415.69 225.3 417.6C240.35 420.92 244.27 424.93 244.27 432.41C244.27 440.51 236.46 447.06 222.14 447.06C213.36 447.04 204.89 443.72 199.05 439.75Z" fill="black"/>
<path d="M261.68 383.18H274.03L281.48 407.64L284.06 417.03H284.44L286.95 407.64L294.46 383.18H306.81V445.89H296.95V420.59C296.95 413.99 298.05 400.96 298.57 394.89H298.28L294.1 409.45L287.2 429.27H280.88L274.03 409.45L269.96 394.89H269.7C270.35 400.97 271.32 413.99 271.32 420.59V445.89H261.66V383.18H261.68Z" fill="black"/>
<path d="M319.92 439.75L324.76 432.68C330.38 436.41 336.81 438.66 344.47 438.66C351 438.66 354.06 436.17 354.06 433.05C354.06 429.96 351.99 428.24 341.02 425.97C328.45 423.34 322.87 418.89 322.87 411.72C322.87 403.53 330.33 397.64 343.51 397.64C351.31 397.64 358.44 400.7 363.22 403.87L358.12 410.68C353.56 407.74 348.12 405.96 342.52 405.96C336.41 405.96 333.89 408.32 333.89 411.2C333.89 414.52 337.35 415.69 346.17 417.6C361.22 420.92 365.14 424.93 365.14 432.41C365.14 440.51 357.33 447.06 343.01 447.06C334.22 447.04 325.75 443.72 319.92 439.75Z" fill="black"/>
<path d="M379.26 433.24C379.26 422.68 388.55 417.42 411.82 415.78C411.43 410.51 408.29 406.54 400.61 406.54C395.31 406.54 390.06 408.85 385.22 411.54L381.11 404.2C386.82 400.78 394.55 397.63 402.66 397.63C415.73 397.63 422.92 404.89 422.92 418.01V445.89H413.8L412.95 440.05H412.63C407.69 443.87 401.36 447.04 395.05 447.04C385.85 447.04 379.26 441.41 379.26 433.24ZM411.81 432.62V422.72C394.89 423.83 390.01 427.31 390.01 432.39C390.01 436.54 393.68 438.33 398.35 438.33C403.09 438.32 407.46 436.11 411.81 432.62Z" fill="black"/>
<path d="M452.64 428.74V386.95H436.92V378.17H463.74V429.32C463.74 435.61 467.45 438 472.21 438C474.65 438 477.24 437.43 480.27 436.17L482.85 444.37C478.22 446.09 475.01 447.05 469.5 447.05C458.49 447.04 452.64 440.3 452.64 428.74Z" fill="black"/>
<path d="M496.28 433.24C496.28 422.68 505.57 417.42 528.84 415.78C528.45 410.51 525.31 406.54 517.63 406.54C512.33 406.54 507.08 408.85 502.24 411.54L498.13 404.2C503.84 400.78 511.57 397.63 519.68 397.63C532.75 397.63 539.94 404.89 539.94 418.01V445.89H530.82L529.97 440.05H529.65C524.71 443.87 518.38 447.04 512.07 447.04C502.88 447.04 496.28 441.41 496.28 433.24ZM528.84 432.62V422.72C511.92 423.83 507.04 427.31 507.04 432.39C507.04 436.54 510.71 438.33 515.38 438.33C520.12 438.32 524.49 436.11 528.84 432.62Z" fill="black"/>
<path d="M566.25 426.95V407.57H553.65V399.3L566.72 398.78L568.16 384.03H577.35V398.78H598.77V407.56H577.35V426.9C577.35 434.68 580.27 438.19 588.23 438.19C592.16 438.19 595.4 437.4 598.48 436.29L600.63 444.36C596.41 445.75 591.66 447.04 585.56 447.04C571.15 447.04 566.25 438.95 566.25 426.95Z" fill="black"/>
<path d="M634.97 407.57H614.62V398.79H646.06V445.9H634.97V407.57V407.57ZM631.91 382.79C631.91 378.37 635.23 375.31 639.79 375.31C644.35 375.31 647.67 378.37 647.67 382.79C647.67 387.27 644.35 390.2 639.79 390.2C635.23 390.2 631.91 387.27 631.91 382.79Z" fill="black"/>
<path d="M369.33 40.45C371.4 45.79 373.01 51.1299 374.45 56.4699C374.35 61.8099 374.42 67.1499 374.4 72.4899V104.54V168.64C374.4 171.44 372.13 173.71 369.33 173.71C366.53 173.71 364.26 171.44 364.26 168.64V104.54V72.4999C364.24 67.1599 364.31 61.82 364.21 56.4799C365.65 51.13 367.26 45.79 369.33 40.45Z" fill="black"/>
<path d="M332.7 77.2999C332.6 80.7899 332.66 84.2899 332.64 87.7799V150.73C332.64 152.8 331.4 154.56 329.64 155.35L322.69 152.03H322.67C322.57 151.62 322.51 151.18 322.51 150.73V87.7799C322.49 84.2899 322.57 80.7899 322.47 77.2999C323.91 73.7899 325.51 70.3099 327.58 66.7999C329.66 70.3099 331.26 73.7999 332.7 77.2999Z" fill="black"/>
<path d="M416.15 87.7899V150.74C416.15 151.19 416.09 151.63 415.99 152.04C413.66 153.13 411.33 154.25 409 155.36C407.26 154.57 406.02 152.79 406.02 150.74V87.7899C406 84.2999 406.06 80.7999 405.96 77.3099C407.42 73.7999 409.02 70.3199 411.09 66.8099C413.16 70.3199 414.76 73.7999 416.2 77.3099C416.09 80.7899 416.17 84.2999 416.15 87.7899Z" fill="black"/>
<path d="M369.33 263.11C367.22 260.78 365.72 258.46 364.21 256.13C364.31 253.8 364.24 251.48 364.26 249.15V235.2V207.3C364.26 204.5 366.53 202.23 369.33 202.23C372.13 202.23 374.4 204.5 374.4 207.3V235.2V249.15C374.42 251.48 374.35 253.8 374.45 256.13C372.93 258.46 371.44 260.79 369.33 263.11Z" fill="black"/>
<path d="M332.7 245.66C330.59 243.33 329.09 241.01 327.58 238.68C327.68 236.35 327.61 234.03 327.63 231.7V217.75V189.85C327.63 187.05 329.9 184.78 332.7 184.78C335.5 184.78 337.77 187.05 337.77 189.85V217.75V231.7C337.79 234.03 337.72 236.35 337.82 238.68C336.3 241.01 334.81 243.33 332.7 245.66Z" fill="black"/>
<path d="M405.96 245.66C403.85 243.33 402.35 241.01 400.84 238.68C400.94 236.35 400.87 234.03 400.89 231.7V217.75V189.85C400.89 187.05 403.16 184.78 405.96 184.78C408.76 184.78 411.03 187.05 411.03 189.85V217.75V231.7C411.05 234.03 410.98 236.35 411.08 238.68C409.57 241.01 408.07 243.33 405.96 245.66Z" fill="black"/>
<path d="M434.68 137.5C430.14 141.96 425.37 146.02 420.55 149.91C419.03 150.6 417.51 151.31 415.99 152.04C413.66 153.13 411.33 154.25 409 155.36C407.4 156.13 405.8 156.9 404.19 157.65L371.51 173.22L369.34 174.25L367.15 173.22L334.47 157.65L329.64 155.36L322.69 152.04H322.67L318.13 149.87C313.37 145.88 308.56 141.94 303.98 137.5C310.31 138.27 316.39 139.51 322.49 140.7H322.51L332.65 145.55L338.83 148.49L369.34 163.03L399.83 148.49C401.88 147.5 403.95 146.52 406.01 145.55C409.4 143.95 412.78 142.35 416.15 140.66C422.21 139.36 428.35 138.23 434.68 137.5Z" fill="black"/>
<path d="M408.14 194.43L371.51 211.88L369.33 212.92L367.15 211.88L330.52 194.43C327.99 193.23 326.92 190.2 328.12 187.67C329.32 185.14 332.35 184.07 334.88 185.27L371.51 202.72H367.15L403.78 185.27C406.31 184.07 409.33 185.14 410.54 187.67C411.74 190.21 410.67 193.23 408.14 194.43Z" fill="black"/>
<path d="M464.49 207.43C464.49 259.92 421.81 302.62 369.32 302.62C316.85 302.62 274.15 259.92 274.15 207.43C274.15 189.93 279.02 172.76 288.04 157.94L290.17 159.81L292.7 162.04C284.59 175.7 280.23 191.42 280.23 207.43C280.23 256.58 320.19 296.54 369.32 296.54C418.44 296.54 458.41 256.58 458.41 207.43C458.41 191.35 454.03 175.58 445.88 161.89L450.54 157.81C459.61 172.68 464.49 189.9 464.49 207.43Z" fill="black"/>
</svg>
